%
M48
M72
T01C0.01575
T02C0.03937
%
T01
X19130Y23626
X73807Y32263
X85399Y27590
X79374Y15218
X83429Y11251
X95182Y27223
X42109Y96112
X70514Y110069
X92002Y150481
X97272Y166477
X47983Y165971
X22147Y132906
X14345Y166487
T02
X22720Y51836
X22720Y61873
X22720Y71843
X22720Y81834
X22720Y91840
X51952Y91832
X51952Y81827
X51952Y71836
X51952Y61866
X51952Y51829
M30
