G75*
%MOIN*%
%OFA0B0*%
%FSLAX25Y25*%
%IPPOS*%
%LPD*%
%AMOC8*
5,1,8,0,0,1.08239X$1,22.5*
%
%ADD10C,0.00394*%
%ADD11C,0.05906*%
%ADD12C,0.03175*%
%ADD13C,0.01378*%
D10*
X0004414Y0002067D02*
X0114478Y0002130D01*
X0114478Y0186381D01*
X0004414Y0186319D01*
X0004414Y0002067D01*
D11*
X0022720Y0051836D03*
X0022720Y0061873D03*
X0022720Y0071843D03*
X0022720Y0081834D03*
X0022720Y0091840D03*
X0051952Y0091832D03*
X0051952Y0081827D03*
X0051952Y0071836D03*
X0051952Y0061866D03*
X0051952Y0051829D03*
D12*
X0073807Y0032263D03*
X0085399Y0027590D03*
X0079374Y0015218D03*
X0083429Y0011251D03*
X0095182Y0027223D03*
X0042109Y0096112D03*
X0070514Y0110069D03*
X0092002Y0150481D03*
X0097272Y0166477D03*
X0047983Y0165971D03*
X0022147Y0132906D03*
X0014345Y0166487D03*
X0019130Y0023626D03*
D13*
X0019030Y0023613D02*
X0065319Y0023613D01*
X0073889Y0032183D01*
X0076616Y0036374D02*
X0085354Y0027636D01*
X0095154Y0027349D02*
X0083081Y0039422D01*
X0039489Y0039422D01*
X0026990Y0051921D01*
X0023727Y0051921D01*
X0014378Y0046550D02*
X0024555Y0036374D01*
X0076616Y0036374D01*
X0079348Y0015183D02*
X0079576Y0014954D01*
X0097255Y0014954D01*
X0099992Y0017692D01*
X0099992Y0080569D01*
X0070623Y0109939D01*
X0054686Y0109939D01*
X0047988Y0116637D01*
X0047988Y0166027D01*
X0032388Y0172337D02*
X0088566Y0172337D01*
X0092006Y0168897D01*
X0092006Y0150555D01*
X0103335Y0160390D02*
X0097366Y0166359D01*
X0103335Y0160390D02*
X0103335Y0015621D01*
X0098810Y0011095D01*
X0083439Y0011095D01*
X0042042Y0096219D02*
X0022211Y0116051D01*
X0022211Y0162159D01*
X0032388Y0172337D01*
X0014378Y0166553D02*
X0014378Y0046550D01*
M02*
