G75*
%MOIN*%
%OFA0B0*%
%FSLAX25Y25*%
%IPPOS*%
%LPD*%
%AMOC8*
5,1,8,0,0,1.08239X$1,22.5*
%
%ADD10C,0.00394*%
%ADD11R,0.03937X0.03937*%
%ADD12R,0.03543X0.03543*%
%ADD13R,0.04331X0.04331*%
%ADD14R,0.05906X0.05906*%
%ADD15R,0.05906X0.04331*%
%ADD16R,0.02362X0.06102*%
%ADD17R,0.04724X0.07087*%
%ADD18C,0.05906*%
%ADD19C,0.01378*%
%ADD20C,0.03175*%
%ADD21C,0.01575*%
%ADD22C,0.04000*%
D10*
X0004414Y0002067D02*
X0114478Y0002130D01*
X0114478Y0186381D01*
X0004414Y0186319D01*
X0004414Y0002067D01*
D11*
X0080504Y0033948D03*
X0079887Y0097179D03*
X0058600Y0108492D03*
X0024297Y0138787D03*
X0058562Y0165772D03*
X0093775Y0138830D03*
D12*
X0091044Y0143951D03*
X0091044Y0145593D03*
X0091044Y0133720D03*
X0091044Y0132078D03*
X0065363Y0111223D03*
X0063721Y0111223D03*
X0053490Y0111223D03*
X0051848Y0111223D03*
X0073124Y0094448D03*
X0074766Y0094448D03*
X0084997Y0094448D03*
X0086639Y0094448D03*
X0087266Y0036679D03*
X0085624Y0036679D03*
X0075393Y0036679D03*
X0073752Y0036679D03*
X0027028Y0132025D03*
X0027028Y0133667D03*
X0027028Y0143898D03*
X0027028Y0145539D03*
X0051800Y0163041D03*
X0053442Y0163041D03*
X0063672Y0163041D03*
X0065314Y0163041D03*
D13*
X0094042Y0095265D03*
X0098964Y0095265D03*
X0099512Y0035425D03*
X0094589Y0035425D03*
D14*
X0096488Y0174100D03*
X0104132Y0174100D03*
X0021079Y0174100D03*
X0013514Y0174100D03*
D15*
X0019770Y0091836D03*
X0019770Y0081836D03*
X0019770Y0071836D03*
X0019770Y0061836D03*
X0019770Y0051836D03*
X0054809Y0051836D03*
X0054809Y0061836D03*
X0054809Y0071836D03*
X0054809Y0081836D03*
X0054809Y0091836D03*
D16*
X0046290Y0020882D03*
X0042353Y0020882D03*
X0038416Y0020882D03*
X0034479Y0020882D03*
X0030542Y0020882D03*
X0026605Y0020882D03*
X0022668Y0020882D03*
X0079445Y0020882D03*
X0083382Y0020882D03*
X0087319Y0020882D03*
X0091256Y0020882D03*
X0095193Y0020882D03*
D17*
X0100311Y0005626D03*
X0100311Y0005626D03*
X0102280Y0005626D03*
X0074327Y0005626D03*
X0072359Y0005626D03*
X0053376Y0005626D03*
X0051408Y0005626D03*
X0017550Y0005626D03*
X0015581Y0005626D03*
D18*
X0022720Y0051836D03*
X0022720Y0061873D03*
X0022720Y0071843D03*
X0022720Y0081834D03*
X0022720Y0091840D03*
X0051952Y0091832D03*
X0051952Y0081827D03*
X0051952Y0071836D03*
X0051952Y0061866D03*
X0051952Y0051829D03*
D19*
X0038520Y0070300D02*
X0027086Y0081734D01*
X0022157Y0081734D01*
X0022256Y0071874D02*
X0026987Y0071874D01*
X0034479Y0064383D01*
X0034479Y0022379D01*
X0038520Y0022477D02*
X0038520Y0070300D01*
X0042387Y0076487D02*
X0027009Y0091865D01*
X0022040Y0091865D01*
X0042269Y0096006D02*
X0046409Y0091866D01*
X0046409Y0022417D01*
X0042387Y0022417D02*
X0042387Y0076487D01*
X0026593Y0061817D02*
X0030536Y0057874D01*
X0030536Y0022083D01*
X0022074Y0022394D02*
X0020842Y0023626D01*
X0019130Y0023626D01*
X0022354Y0061817D02*
X0026593Y0061817D01*
X0065334Y0111210D02*
X0069325Y0111210D01*
X0070371Y0110164D01*
X0073710Y0094637D02*
X0073710Y0036177D01*
X0073791Y0036520D02*
X0073791Y0032560D01*
X0079374Y0019228D02*
X0079374Y0015837D01*
X0083406Y0019526D02*
X0083406Y0011710D01*
X0087316Y0023099D02*
X0087316Y0025765D01*
X0085858Y0027223D01*
X0087333Y0036360D02*
X0094382Y0036360D01*
X0095182Y0026651D02*
X0095182Y0022710D01*
X0093677Y0094479D02*
X0086733Y0094464D01*
X0090465Y0145981D02*
X0090465Y0148979D01*
X0091538Y0150051D01*
X0097272Y0166556D02*
X0097272Y0171864D01*
X0095332Y0173804D01*
X0051463Y0163748D02*
X0050276Y0163748D01*
X0047999Y0166025D01*
X0026370Y0132882D02*
X0022606Y0132882D01*
X0026370Y0132882D02*
X0026883Y0132369D01*
X0014345Y0166817D02*
X0014345Y0172098D01*
X0013355Y0173088D01*
D20*
X0014345Y0166487D03*
X0022147Y0132906D03*
X0047983Y0165971D03*
X0092002Y0150481D03*
X0097272Y0166477D03*
X0070514Y0110069D03*
X0042109Y0096112D03*
X0073807Y0032263D03*
X0085399Y0027590D03*
X0079374Y0015218D03*
X0083429Y0011251D03*
X0095182Y0027223D03*
X0019130Y0023626D03*
D21*
X0026591Y0018835D02*
X0026607Y0015198D01*
X0026881Y0014925D01*
D22*
X0028234Y0014113D01*
X0048978Y0014113D01*
X0054539Y0019674D01*
X0054539Y0050911D01*
X0054762Y0051606D02*
X0054762Y0089446D01*
X0052290Y0091918D01*
X0052290Y0110161D01*
X0052460Y0105387D02*
X0027930Y0105387D01*
X0016852Y0116466D01*
X0016852Y0142045D01*
X0020090Y0145283D01*
X0026222Y0145283D01*
X0021032Y0146006D02*
X0021032Y0171583D01*
X0023874Y0174425D01*
X0064403Y0174425D01*
X0072499Y0182520D01*
X0101322Y0182520D01*
X0104390Y0179452D01*
X0104390Y0111932D01*
X0099705Y0107247D01*
X0099659Y0035254D01*
X0103093Y0132962D02*
X0091927Y0132962D01*
X0064521Y0163455D02*
X0064543Y0174009D01*
X0021032Y0146006D02*
X0019896Y0144870D01*
M02*
