G75*
%MOIN*%
%OFA0B0*%
%FSLAX25Y25*%
%IPPOS*%
%LPD*%
%AMOC8*
5,1,8,0,0,1.08239X$1,22.5*
%
%ADD10C,0.00400*%
%ADD11C,0.00394*%
D10*
X0001200Y0001200D02*
X0001200Y0185528D01*
X0111257Y0185528D01*
X0111257Y0001200D01*
X0103247Y0001200D01*
X0103247Y0023877D01*
X0066712Y0023877D01*
X0066712Y0001200D01*
X0053798Y0001200D01*
X0053798Y0023877D01*
X0009389Y0023877D01*
X0009389Y0001200D01*
X0001200Y0001200D01*
X0011279Y0039940D02*
X0011279Y0101357D01*
X0057893Y0101357D01*
X0057893Y0039940D01*
X0011279Y0039940D01*
D11*
X0024822Y0104507D02*
X0088759Y0104507D01*
X0088904Y0104509D01*
X0089049Y0104515D01*
X0089194Y0104525D01*
X0089338Y0104538D01*
X0089482Y0104556D01*
X0089625Y0104578D01*
X0089768Y0104603D01*
X0089910Y0104632D01*
X0090051Y0104665D01*
X0090191Y0104702D01*
X0090331Y0104743D01*
X0090469Y0104787D01*
X0090605Y0104835D01*
X0090741Y0104887D01*
X0090875Y0104943D01*
X0091007Y0105002D01*
X0091138Y0105064D01*
X0091267Y0105131D01*
X0091394Y0105200D01*
X0091519Y0105273D01*
X0091642Y0105350D01*
X0091764Y0105430D01*
X0091882Y0105513D01*
X0091999Y0105599D01*
X0092113Y0105688D01*
X0092225Y0105780D01*
X0092334Y0105876D01*
X0092441Y0105974D01*
X0092545Y0106075D01*
X0092646Y0106179D01*
X0092744Y0106286D01*
X0092840Y0106395D01*
X0092932Y0106507D01*
X0093021Y0106621D01*
X0093107Y0106738D01*
X0093190Y0106856D01*
X0093270Y0106978D01*
X0093347Y0107101D01*
X0093420Y0107226D01*
X0093489Y0107353D01*
X0093556Y0107482D01*
X0093618Y0107613D01*
X0093677Y0107745D01*
X0093733Y0107879D01*
X0093785Y0108015D01*
X0093833Y0108151D01*
X0093877Y0108289D01*
X0093918Y0108429D01*
X0093955Y0108569D01*
X0093988Y0108710D01*
X0094017Y0108852D01*
X0094042Y0108995D01*
X0094064Y0109138D01*
X0094082Y0109282D01*
X0094095Y0109426D01*
X0094105Y0109571D01*
X0094111Y0109716D01*
X0094113Y0109861D01*
X0094113Y0161830D01*
X0089389Y0169074D02*
X0089389Y0178523D01*
X0106397Y0178523D01*
X0106397Y0169074D01*
X0089389Y0169074D01*
X0088444Y0167499D02*
X0024192Y0167499D01*
X0022617Y0168444D02*
X0005609Y0168444D01*
X0005609Y0177893D01*
X0022617Y0177893D01*
X0022617Y0168444D01*
X0024192Y0167499D02*
X0024035Y0167497D01*
X0023878Y0167491D01*
X0023721Y0167481D01*
X0023565Y0167468D01*
X0023409Y0167450D01*
X0023253Y0167429D01*
X0023098Y0167403D01*
X0022944Y0167374D01*
X0022790Y0167341D01*
X0022638Y0167304D01*
X0022486Y0167264D01*
X0022335Y0167219D01*
X0022186Y0167171D01*
X0022038Y0167119D01*
X0021891Y0167064D01*
X0021745Y0167004D01*
X0021601Y0166942D01*
X0021459Y0166875D01*
X0021318Y0166805D01*
X0021179Y0166732D01*
X0021042Y0166655D01*
X0020907Y0166575D01*
X0020775Y0166491D01*
X0020644Y0166404D01*
X0020515Y0166314D01*
X0020389Y0166221D01*
X0020265Y0166125D01*
X0020143Y0166025D01*
X0020024Y0165923D01*
X0019908Y0165817D01*
X0019794Y0165709D01*
X0019683Y0165598D01*
X0019575Y0165484D01*
X0019469Y0165368D01*
X0019367Y0165249D01*
X0019267Y0165127D01*
X0019171Y0165003D01*
X0019078Y0164877D01*
X0018988Y0164748D01*
X0018901Y0164617D01*
X0018817Y0164485D01*
X0018737Y0164349D01*
X0018660Y0164213D01*
X0018587Y0164074D01*
X0018517Y0163933D01*
X0018450Y0163791D01*
X0018388Y0163647D01*
X0018328Y0163501D01*
X0018273Y0163354D01*
X0018221Y0163206D01*
X0018173Y0163057D01*
X0018128Y0162906D01*
X0018088Y0162754D01*
X0018051Y0162602D01*
X0018018Y0162448D01*
X0017989Y0162294D01*
X0017963Y0162139D01*
X0017942Y0161983D01*
X0017924Y0161827D01*
X0017911Y0161671D01*
X0017901Y0161514D01*
X0017895Y0161357D01*
X0017893Y0161200D01*
X0017893Y0111436D01*
X0017895Y0111269D01*
X0017901Y0111101D01*
X0017911Y0110934D01*
X0017925Y0110767D01*
X0017944Y0110601D01*
X0017966Y0110435D01*
X0017992Y0110269D01*
X0018022Y0110105D01*
X0018056Y0109941D01*
X0018094Y0109778D01*
X0018136Y0109616D01*
X0018182Y0109455D01*
X0018232Y0109295D01*
X0018286Y0109136D01*
X0018343Y0108979D01*
X0018405Y0108823D01*
X0018470Y0108669D01*
X0018538Y0108516D01*
X0018611Y0108365D01*
X0018687Y0108216D01*
X0018766Y0108069D01*
X0018849Y0107923D01*
X0018936Y0107780D01*
X0019026Y0107639D01*
X0019120Y0107500D01*
X0019216Y0107363D01*
X0019316Y0107229D01*
X0019420Y0107097D01*
X0019526Y0106968D01*
X0019636Y0106841D01*
X0019748Y0106717D01*
X0019864Y0106596D01*
X0019982Y0106478D01*
X0020103Y0106362D01*
X0020227Y0106250D01*
X0020354Y0106140D01*
X0020483Y0106034D01*
X0020615Y0105930D01*
X0020749Y0105830D01*
X0020886Y0105734D01*
X0021025Y0105640D01*
X0021166Y0105550D01*
X0021309Y0105463D01*
X0021455Y0105380D01*
X0021602Y0105301D01*
X0021751Y0105225D01*
X0021902Y0105152D01*
X0022055Y0105084D01*
X0022209Y0105019D01*
X0022365Y0104957D01*
X0022522Y0104900D01*
X0022681Y0104846D01*
X0022841Y0104796D01*
X0023002Y0104750D01*
X0023164Y0104708D01*
X0023327Y0104670D01*
X0023491Y0104636D01*
X0023655Y0104606D01*
X0023821Y0104580D01*
X0023987Y0104558D01*
X0024153Y0104539D01*
X0024320Y0104525D01*
X0024487Y0104515D01*
X0024655Y0104509D01*
X0024822Y0104507D01*
X0088444Y0167499D02*
X0088592Y0167497D01*
X0088741Y0167491D01*
X0088889Y0167482D01*
X0089037Y0167468D01*
X0089184Y0167451D01*
X0089331Y0167429D01*
X0089477Y0167404D01*
X0089623Y0167375D01*
X0089767Y0167342D01*
X0089911Y0167306D01*
X0090054Y0167266D01*
X0090196Y0167222D01*
X0090336Y0167174D01*
X0090476Y0167122D01*
X0090613Y0167067D01*
X0090750Y0167009D01*
X0090885Y0166947D01*
X0091018Y0166881D01*
X0091149Y0166812D01*
X0091279Y0166739D01*
X0091406Y0166664D01*
X0091532Y0166584D01*
X0091655Y0166502D01*
X0091776Y0166416D01*
X0091895Y0166328D01*
X0092012Y0166236D01*
X0092126Y0166141D01*
X0092237Y0166043D01*
X0092346Y0165942D01*
X0092453Y0165839D01*
X0092556Y0165732D01*
X0092657Y0165623D01*
X0092755Y0165512D01*
X0092850Y0165398D01*
X0092942Y0165281D01*
X0093030Y0165162D01*
X0093116Y0165041D01*
X0093198Y0164918D01*
X0093278Y0164792D01*
X0093353Y0164665D01*
X0093426Y0164535D01*
X0093495Y0164404D01*
X0093561Y0164271D01*
X0093623Y0164136D01*
X0093681Y0163999D01*
X0093736Y0163862D01*
X0093788Y0163722D01*
X0093836Y0163582D01*
X0093880Y0163440D01*
X0093920Y0163297D01*
X0093956Y0163153D01*
X0093989Y0163009D01*
X0094018Y0162863D01*
X0094043Y0162717D01*
X0094065Y0162570D01*
X0094082Y0162423D01*
X0094096Y0162275D01*
X0094105Y0162127D01*
X0094111Y0161978D01*
X0094113Y0161830D01*
M02*
