G75*
%MOIN*%
%OFA0B0*%
%FSLAX25Y25*%
%IPPOS*%
%LPD*%
%AMOC8*
5,1,8,0,0,1.08239X$1,22.5*
%
%ADD10C,0.00400*%
%ADD11C,0.00394*%
%ADD12C,0.00500*%
D10*
X0001200Y0001200D02*
X0001200Y0185528D01*
X0111257Y0185528D01*
X0111257Y0001200D01*
X0101357Y0001200D01*
X0101357Y0021357D01*
X0066712Y0021357D01*
X0066712Y0001200D01*
X0052539Y0001200D01*
X0052539Y0021357D01*
X0010019Y0021357D01*
X0010019Y0001200D01*
X0001200Y0001200D01*
X0018208Y0040255D02*
X0018208Y0101357D01*
X0050019Y0101357D01*
X0050019Y0040255D01*
X0018208Y0040255D01*
D11*
X0052764Y0047464D02*
X0053175Y0047091D01*
X0053444Y0047612D01*
X0053447Y0049187D01*
X0053609Y0049814D01*
X0055184Y0049814D01*
X0055148Y0050381D01*
X0053573Y0050381D01*
X0053448Y0051043D01*
X0053448Y0051831D01*
X0053772Y0052295D01*
X0055347Y0052299D01*
X0055872Y0052564D01*
X0055385Y0052861D01*
X0053023Y0052861D01*
X0052764Y0052332D01*
X0052764Y0049826D01*
X0052764Y0047464D01*
X0052764Y0047481D02*
X0053376Y0047481D01*
X0053444Y0047873D02*
X0052764Y0047873D01*
X0052764Y0048265D02*
X0053445Y0048265D01*
X0053446Y0048658D02*
X0052764Y0048658D01*
X0052764Y0049050D02*
X0053447Y0049050D01*
X0053513Y0049442D02*
X0052764Y0049442D01*
X0052764Y0049834D02*
X0055183Y0049834D01*
X0055158Y0050227D02*
X0052764Y0050227D01*
X0052764Y0050619D02*
X0053528Y0050619D01*
X0053454Y0051011D02*
X0052764Y0051011D01*
X0052764Y0051403D02*
X0053448Y0051403D01*
X0053448Y0051795D02*
X0052764Y0051795D01*
X0052764Y0052188D02*
X0053697Y0052188D01*
X0052885Y0052580D02*
X0055847Y0052580D01*
X0057372Y0052188D02*
X0057487Y0052861D01*
X0057960Y0052547D01*
X0057960Y0047822D01*
X0057907Y0047088D01*
X0057372Y0047340D01*
X0057372Y0052188D01*
X0057960Y0052188D01*
X0057960Y0051795D02*
X0057372Y0051795D01*
X0057372Y0051403D02*
X0057960Y0051403D01*
X0057960Y0051011D02*
X0057372Y0051011D01*
X0057372Y0050619D02*
X0057960Y0050619D01*
X0057960Y0050227D02*
X0057372Y0050227D01*
X0057372Y0049834D02*
X0057960Y0049834D01*
X0057960Y0049442D02*
X0057372Y0049442D01*
X0057372Y0049050D02*
X0057960Y0049050D01*
X0057960Y0048658D02*
X0057372Y0048658D01*
X0057372Y0048265D02*
X0057960Y0048265D01*
X0057960Y0047873D02*
X0057372Y0047873D01*
X0057372Y0047481D02*
X0057936Y0047481D01*
X0057905Y0047089D02*
X0057907Y0047089D01*
X0059406Y0047492D02*
X0060078Y0047117D01*
X0060856Y0047180D01*
X0061428Y0047404D01*
X0060050Y0047763D01*
X0059941Y0048498D01*
X0060567Y0048946D01*
X0061296Y0049244D01*
X0061424Y0048670D01*
X0061203Y0047958D01*
X0061938Y0047093D01*
X0062045Y0047522D01*
X0062016Y0048306D01*
X0062008Y0049880D01*
X0061876Y0050644D01*
X0061254Y0051088D01*
X0060471Y0051128D01*
X0059764Y0050815D01*
X0059370Y0050145D01*
X0059785Y0049814D01*
X0060192Y0050380D01*
X0060908Y0050603D01*
X0061419Y0050123D01*
X0060881Y0049616D01*
X0060139Y0049352D01*
X0059482Y0048934D01*
X0059180Y0048227D01*
X0059406Y0047492D01*
X0059427Y0047481D02*
X0061132Y0047481D01*
X0061275Y0047873D02*
X0062032Y0047873D01*
X0062035Y0047481D02*
X0061608Y0047481D01*
X0061299Y0048265D02*
X0062017Y0048265D01*
X0062014Y0048658D02*
X0061421Y0048658D01*
X0061339Y0049050D02*
X0062012Y0049050D01*
X0062010Y0049442D02*
X0060392Y0049442D01*
X0060821Y0049050D02*
X0059665Y0049050D01*
X0059364Y0048658D02*
X0060164Y0048658D01*
X0059975Y0048265D02*
X0059196Y0048265D01*
X0059289Y0047873D02*
X0060033Y0047873D01*
X0059800Y0049834D02*
X0059760Y0049834D01*
X0060082Y0050227D02*
X0059418Y0050227D01*
X0059649Y0050619D02*
X0061880Y0050619D01*
X0061948Y0050227D02*
X0061309Y0050227D01*
X0061113Y0049834D02*
X0062008Y0049834D01*
X0063196Y0049877D02*
X0063336Y0050628D01*
X0063961Y0051077D01*
X0064742Y0051127D01*
X0065441Y0050794D01*
X0065768Y0050097D01*
X0065177Y0049953D01*
X0064759Y0050571D01*
X0063999Y0050491D01*
X0063920Y0049805D01*
X0064603Y0049424D01*
X0065329Y0049122D01*
X0065818Y0048532D01*
X0065751Y0047765D01*
X0065182Y0047239D01*
X0064415Y0047101D01*
X0063918Y0047172D01*
X0063296Y0047626D01*
X0063085Y0048376D01*
X0063586Y0048659D01*
X0063768Y0047964D01*
X0064433Y0047626D01*
X0065144Y0047892D01*
X0065090Y0048600D01*
X0064397Y0048963D01*
X0063678Y0049283D01*
X0063196Y0049877D01*
X0063231Y0049834D02*
X0063924Y0049834D01*
X0063969Y0050227D02*
X0063262Y0050227D01*
X0063335Y0050619D02*
X0065523Y0050619D01*
X0065707Y0050227D02*
X0064992Y0050227D01*
X0064985Y0051011D02*
X0063870Y0051011D01*
X0063549Y0049442D02*
X0064570Y0049442D01*
X0064202Y0049050D02*
X0065390Y0049050D01*
X0065714Y0048658D02*
X0064980Y0048658D01*
X0065115Y0048265D02*
X0065795Y0048265D01*
X0065760Y0047873D02*
X0065093Y0047873D01*
X0065443Y0047481D02*
X0063495Y0047481D01*
X0063226Y0047873D02*
X0063946Y0047873D01*
X0063689Y0048265D02*
X0063116Y0048265D01*
X0063583Y0048658D02*
X0063586Y0048658D01*
X0061361Y0051011D02*
X0060206Y0051011D01*
X0057911Y0052580D02*
X0057439Y0052580D01*
X0054947Y0057127D02*
X0055256Y0057605D01*
X0055256Y0058393D01*
X0055738Y0058698D01*
X0055972Y0059251D01*
X0055284Y0059351D01*
X0055256Y0060110D01*
X0055256Y0063260D01*
X0054986Y0063775D01*
X0054342Y0063537D01*
X0052538Y0060037D01*
X0052189Y0059334D01*
X0052334Y0058699D01*
X0053860Y0058699D01*
X0053853Y0059351D01*
X0053115Y0059351D01*
X0053212Y0059891D01*
X0054288Y0061994D01*
X0054464Y0061939D01*
X0054464Y0061152D01*
X0054465Y0060363D01*
X0054465Y0059575D01*
X0053948Y0059369D01*
X0053954Y0058680D01*
X0054465Y0058467D01*
X0054465Y0057432D01*
X0054947Y0057127D01*
X0055050Y0057286D02*
X0054695Y0057286D01*
X0054465Y0057679D02*
X0055256Y0057679D01*
X0055256Y0058071D02*
X0054465Y0058071D01*
X0054465Y0058463D02*
X0055367Y0058463D01*
X0055804Y0058855D02*
X0053953Y0058855D01*
X0053858Y0058855D02*
X0052298Y0058855D01*
X0052209Y0059247D02*
X0053854Y0059247D01*
X0053949Y0059247D02*
X0055971Y0059247D01*
X0055273Y0059640D02*
X0054465Y0059640D01*
X0054465Y0060032D02*
X0055259Y0060032D01*
X0055256Y0060424D02*
X0054465Y0060424D01*
X0054464Y0060816D02*
X0055256Y0060816D01*
X0055256Y0061208D02*
X0054464Y0061208D01*
X0054464Y0061601D02*
X0055256Y0061601D01*
X0055256Y0061993D02*
X0054292Y0061993D01*
X0054287Y0061993D02*
X0053546Y0061993D01*
X0053748Y0062385D02*
X0055256Y0062385D01*
X0055256Y0062777D02*
X0053950Y0062777D01*
X0054152Y0063170D02*
X0055256Y0063170D01*
X0055098Y0063562D02*
X0054409Y0063562D01*
X0054086Y0061601D02*
X0053344Y0061601D01*
X0053142Y0061208D02*
X0053886Y0061208D01*
X0053685Y0060816D02*
X0052940Y0060816D01*
X0052737Y0060424D02*
X0053484Y0060424D01*
X0053284Y0060032D02*
X0052535Y0060032D01*
X0052341Y0059640D02*
X0053166Y0059640D01*
X0057958Y0058110D02*
X0058357Y0057729D01*
X0058895Y0058147D01*
X0059339Y0058796D01*
X0059660Y0059514D01*
X0059875Y0060271D01*
X0060011Y0061047D01*
X0060093Y0061830D01*
X0060136Y0062616D01*
X0060148Y0063403D01*
X0060149Y0064978D01*
X0060100Y0068128D01*
X0060094Y0068915D01*
X0060097Y0069703D01*
X0060111Y0070490D01*
X0060143Y0071277D01*
X0060202Y0072062D01*
X0060307Y0072842D01*
X0060477Y0073611D01*
X0060741Y0074352D01*
X0061131Y0075034D01*
X0061653Y0075622D01*
X0062249Y0076137D01*
X0062499Y0076576D01*
X0061771Y0076877D01*
X0061106Y0077288D01*
X0060667Y0077937D01*
X0060416Y0078682D01*
X0060268Y0079455D01*
X0060182Y0080238D01*
X0060132Y0081023D01*
X0060105Y0081810D01*
X0060095Y0082598D01*
X0060088Y0088897D01*
X0060067Y0089685D01*
X0060022Y0090471D01*
X0059945Y0091254D01*
X0059825Y0092032D01*
X0059644Y0092798D01*
X0059378Y0093539D01*
X0059003Y0094230D01*
X0058527Y0094857D01*
X0057962Y0094749D01*
X0058142Y0094163D01*
X0058576Y0093508D01*
X0058878Y0092781D01*
X0059077Y0092020D01*
X0059204Y0091243D01*
X0059283Y0090460D01*
X0059329Y0089674D01*
X0059353Y0088887D01*
X0059364Y0087312D01*
X0059354Y0083374D01*
X0059356Y0082587D01*
X0059367Y0081800D01*
X0059395Y0081013D01*
X0059444Y0080227D01*
X0059526Y0079444D01*
X0059661Y0078668D01*
X0059880Y0077912D01*
X0060228Y0077208D01*
X0060748Y0076621D01*
X0061159Y0076172D01*
X0060627Y0075593D01*
X0060203Y0074930D01*
X0059891Y0074208D01*
X0059676Y0073451D01*
X0059535Y0072677D01*
X0059447Y0071894D01*
X0059395Y0071109D01*
X0059372Y0070321D01*
X0059364Y0069534D01*
X0059368Y0067959D01*
X0059405Y0065597D01*
X0059420Y0064022D01*
X0059415Y0063235D01*
X0059392Y0062448D01*
X0059339Y0061662D01*
X0059242Y0060881D01*
X0059076Y0060111D01*
X0058807Y0059373D01*
X0058396Y0058703D01*
X0057958Y0058110D01*
X0057999Y0058071D02*
X0058796Y0058071D01*
X0059111Y0058463D02*
X0058219Y0058463D01*
X0058489Y0058855D02*
X0059366Y0058855D01*
X0059541Y0059247D02*
X0058730Y0059247D01*
X0058904Y0059640D02*
X0059695Y0059640D01*
X0059807Y0060032D02*
X0059047Y0060032D01*
X0059143Y0060424D02*
X0059901Y0060424D01*
X0059971Y0060816D02*
X0059228Y0060816D01*
X0059283Y0061208D02*
X0060028Y0061208D01*
X0060069Y0061601D02*
X0059332Y0061601D01*
X0059362Y0061993D02*
X0060102Y0061993D01*
X0060123Y0062385D02*
X0059388Y0062385D01*
X0059401Y0062777D02*
X0060138Y0062777D01*
X0060144Y0063170D02*
X0059413Y0063170D01*
X0059417Y0063562D02*
X0060148Y0063562D01*
X0060148Y0063954D02*
X0059420Y0063954D01*
X0059417Y0064346D02*
X0060148Y0064346D01*
X0060149Y0064738D02*
X0059413Y0064738D01*
X0059410Y0065131D02*
X0060147Y0065131D01*
X0060140Y0065523D02*
X0059406Y0065523D01*
X0059400Y0065915D02*
X0060134Y0065915D01*
X0060128Y0066307D02*
X0059394Y0066307D01*
X0059388Y0066699D02*
X0060122Y0066699D01*
X0060116Y0067092D02*
X0059382Y0067092D01*
X0059375Y0067484D02*
X0060110Y0067484D01*
X0060104Y0067876D02*
X0059369Y0067876D01*
X0059367Y0068268D02*
X0060099Y0068268D01*
X0060096Y0068660D02*
X0059366Y0068660D01*
X0059365Y0069053D02*
X0060095Y0069053D01*
X0060096Y0069445D02*
X0059365Y0069445D01*
X0059368Y0069837D02*
X0060099Y0069837D01*
X0060106Y0070229D02*
X0059372Y0070229D01*
X0059381Y0070622D02*
X0060116Y0070622D01*
X0060132Y0071014D02*
X0059392Y0071014D01*
X0059414Y0071406D02*
X0060152Y0071406D01*
X0060182Y0071798D02*
X0059440Y0071798D01*
X0059480Y0072190D02*
X0060219Y0072190D01*
X0060272Y0072583D02*
X0059524Y0072583D01*
X0059589Y0072975D02*
X0060336Y0072975D01*
X0060423Y0073367D02*
X0059660Y0073367D01*
X0059763Y0073759D02*
X0060529Y0073759D01*
X0060669Y0074151D02*
X0059875Y0074151D01*
X0060036Y0074544D02*
X0060851Y0074544D01*
X0061075Y0074936D02*
X0060206Y0074936D01*
X0060457Y0075328D02*
X0061392Y0075328D01*
X0061766Y0075720D02*
X0060744Y0075720D01*
X0061104Y0076113D02*
X0062221Y0076113D01*
X0062458Y0076505D02*
X0060855Y0076505D01*
X0060503Y0076897D02*
X0061738Y0076897D01*
X0061105Y0077289D02*
X0060188Y0077289D01*
X0059994Y0077681D02*
X0060840Y0077681D01*
X0060621Y0078074D02*
X0059833Y0078074D01*
X0059720Y0078466D02*
X0060489Y0078466D01*
X0060383Y0078858D02*
X0059628Y0078858D01*
X0059560Y0079250D02*
X0060307Y0079250D01*
X0060247Y0079642D02*
X0059505Y0079642D01*
X0059464Y0080035D02*
X0060204Y0080035D01*
X0060170Y0080427D02*
X0059431Y0080427D01*
X0059407Y0080819D02*
X0060145Y0080819D01*
X0060126Y0081211D02*
X0059388Y0081211D01*
X0059374Y0081603D02*
X0060112Y0081603D01*
X0060102Y0081996D02*
X0059364Y0081996D01*
X0059358Y0082388D02*
X0060097Y0082388D01*
X0060094Y0082780D02*
X0059355Y0082780D01*
X0059354Y0083172D02*
X0060094Y0083172D01*
X0060093Y0083565D02*
X0059354Y0083565D01*
X0059355Y0083957D02*
X0060093Y0083957D01*
X0060093Y0084349D02*
X0059356Y0084349D01*
X0059357Y0084741D02*
X0060092Y0084741D01*
X0060092Y0085133D02*
X0059358Y0085133D01*
X0059359Y0085526D02*
X0060091Y0085526D01*
X0060091Y0085918D02*
X0059360Y0085918D01*
X0059361Y0086310D02*
X0060090Y0086310D01*
X0060090Y0086702D02*
X0059362Y0086702D01*
X0059363Y0087094D02*
X0060090Y0087094D01*
X0060089Y0087487D02*
X0059363Y0087487D01*
X0059360Y0087879D02*
X0060089Y0087879D01*
X0060088Y0088271D02*
X0059357Y0088271D01*
X0059354Y0088663D02*
X0060088Y0088663D01*
X0060083Y0089056D02*
X0059348Y0089056D01*
X0059336Y0089448D02*
X0060073Y0089448D01*
X0060058Y0089840D02*
X0059320Y0089840D01*
X0059297Y0090232D02*
X0060035Y0090232D01*
X0060007Y0090624D02*
X0059267Y0090624D01*
X0059227Y0091017D02*
X0059968Y0091017D01*
X0059921Y0091409D02*
X0059177Y0091409D01*
X0059113Y0091801D02*
X0059861Y0091801D01*
X0059787Y0092193D02*
X0059031Y0092193D01*
X0058929Y0092585D02*
X0059694Y0092585D01*
X0059579Y0092978D02*
X0058797Y0092978D01*
X0058634Y0093370D02*
X0059439Y0093370D01*
X0059257Y0093762D02*
X0058408Y0093762D01*
X0058148Y0094154D02*
X0059044Y0094154D01*
X0058763Y0094546D02*
X0058024Y0094546D01*
X0054807Y0094546D02*
X0053340Y0094546D01*
X0053036Y0094483D02*
X0053349Y0094077D01*
X0054016Y0093957D01*
X0054018Y0090807D01*
X0054017Y0090146D01*
X0054015Y0089358D01*
X0054228Y0088785D01*
X0054807Y0088993D01*
X0054807Y0095292D01*
X0054323Y0095207D01*
X0053801Y0094643D01*
X0053036Y0094483D01*
X0053289Y0094154D02*
X0054807Y0094154D01*
X0054807Y0093762D02*
X0054016Y0093762D01*
X0054017Y0093370D02*
X0054807Y0093370D01*
X0054807Y0092978D02*
X0054017Y0092978D01*
X0054017Y0092585D02*
X0054807Y0092585D01*
X0054807Y0092193D02*
X0054017Y0092193D01*
X0054018Y0091801D02*
X0054807Y0091801D01*
X0054807Y0091409D02*
X0054018Y0091409D01*
X0054018Y0091017D02*
X0054807Y0091017D01*
X0054807Y0090624D02*
X0054018Y0090624D01*
X0054017Y0090232D02*
X0054807Y0090232D01*
X0054807Y0089840D02*
X0054016Y0089840D01*
X0054015Y0089448D02*
X0054807Y0089448D01*
X0054807Y0089056D02*
X0054127Y0089056D01*
X0053918Y0084552D02*
X0053188Y0084286D01*
X0052710Y0083671D01*
X0052500Y0082915D01*
X0052706Y0082381D01*
X0053214Y0082674D01*
X0053375Y0083440D01*
X0053973Y0083911D01*
X0054672Y0083636D01*
X0054909Y0082898D01*
X0054786Y0082126D01*
X0054407Y0081439D01*
X0053905Y0080832D01*
X0053424Y0080208D01*
X0052976Y0079561D01*
X0052561Y0078892D01*
X0052316Y0078182D01*
X0052833Y0077912D01*
X0055195Y0077912D01*
X0055801Y0078093D01*
X0055485Y0078564D01*
X0053910Y0078564D01*
X0053147Y0078578D01*
X0053580Y0079236D01*
X0054049Y0079868D01*
X0055045Y0081087D01*
X0055452Y0081760D01*
X0055676Y0082512D01*
X0055646Y0083296D01*
X0055322Y0084005D01*
X0054693Y0084464D01*
X0053918Y0084552D01*
X0053360Y0084349D02*
X0054851Y0084349D01*
X0055344Y0083957D02*
X0052932Y0083957D01*
X0052680Y0083565D02*
X0053533Y0083565D01*
X0053319Y0083172D02*
X0052571Y0083172D01*
X0052552Y0082780D02*
X0053237Y0082780D01*
X0052718Y0082388D02*
X0052703Y0082388D01*
X0053895Y0080819D02*
X0054826Y0080819D01*
X0055120Y0081211D02*
X0054219Y0081211D01*
X0054498Y0081603D02*
X0055358Y0081603D01*
X0055522Y0081996D02*
X0054714Y0081996D01*
X0054828Y0082388D02*
X0055639Y0082388D01*
X0055666Y0082780D02*
X0054890Y0082780D01*
X0054821Y0083172D02*
X0055651Y0083172D01*
X0055523Y0083565D02*
X0054695Y0083565D01*
X0054505Y0080427D02*
X0053593Y0080427D01*
X0053304Y0080035D02*
X0054185Y0080035D01*
X0053881Y0079642D02*
X0053032Y0079642D01*
X0052783Y0079250D02*
X0053591Y0079250D01*
X0053332Y0078858D02*
X0052549Y0078858D01*
X0052414Y0078466D02*
X0055551Y0078466D01*
X0055738Y0078074D02*
X0052524Y0078074D01*
X0053483Y0073854D02*
X0052859Y0073390D01*
X0052501Y0072695D01*
X0052600Y0072106D01*
X0053183Y0072334D01*
X0053470Y0073057D01*
X0054171Y0073326D01*
X0054745Y0072841D01*
X0054861Y0072069D01*
X0054607Y0071342D01*
X0053902Y0071029D01*
X0053848Y0070438D01*
X0054578Y0070206D01*
X0054947Y0069526D01*
X0054912Y0068744D01*
X0054484Y0068106D01*
X0053732Y0067983D01*
X0053168Y0068489D01*
X0053050Y0069262D01*
X0052273Y0069273D01*
X0052370Y0068497D01*
X0052731Y0067805D01*
X0053387Y0067388D01*
X0053858Y0067305D01*
X0054633Y0067407D01*
X0055275Y0067850D01*
X0055657Y0068532D01*
X0055743Y0069311D01*
X0055521Y0070056D01*
X0054959Y0070594D01*
X0054949Y0070936D01*
X0055468Y0071517D01*
X0055616Y0072285D01*
X0055468Y0073053D01*
X0054989Y0073666D01*
X0054260Y0073935D01*
X0053483Y0073854D01*
X0053356Y0073759D02*
X0054737Y0073759D01*
X0055223Y0073367D02*
X0052848Y0073367D01*
X0052646Y0072975D02*
X0053437Y0072975D01*
X0053282Y0072583D02*
X0052520Y0072583D01*
X0052586Y0072190D02*
X0052815Y0072190D01*
X0053900Y0071014D02*
X0055018Y0071014D01*
X0054958Y0070622D02*
X0053865Y0070622D01*
X0054506Y0070229D02*
X0055340Y0070229D01*
X0055586Y0069837D02*
X0054778Y0069837D01*
X0054943Y0069445D02*
X0055703Y0069445D01*
X0055715Y0069053D02*
X0054925Y0069053D01*
X0054856Y0068660D02*
X0055672Y0068660D01*
X0055509Y0068268D02*
X0054593Y0068268D01*
X0054744Y0067484D02*
X0053236Y0067484D01*
X0052694Y0067876D02*
X0055289Y0067876D01*
X0053414Y0068268D02*
X0052489Y0068268D01*
X0052349Y0068660D02*
X0053142Y0068660D01*
X0053082Y0069053D02*
X0052301Y0069053D01*
X0054630Y0071406D02*
X0055369Y0071406D01*
X0055522Y0071798D02*
X0054766Y0071798D01*
X0054843Y0072190D02*
X0055597Y0072190D01*
X0055558Y0072583D02*
X0054784Y0072583D01*
X0054587Y0072975D02*
X0055483Y0072975D01*
X0065069Y0072682D02*
X0065046Y0071898D01*
X0065240Y0071138D01*
X0065676Y0070487D01*
X0066272Y0069973D01*
X0066898Y0069496D01*
X0067539Y0069038D01*
X0068192Y0068598D01*
X0068799Y0068103D01*
X0069091Y0067385D01*
X0069000Y0066609D01*
X0068562Y0065965D01*
X0067850Y0065650D01*
X0067066Y0065639D01*
X0066374Y0065991D01*
X0065989Y0066665D01*
X0065916Y0067447D01*
X0065436Y0067755D01*
X0064718Y0067685D01*
X0064736Y0066898D01*
X0064935Y0066139D01*
X0065348Y0065472D01*
X0065931Y0064948D01*
X0066659Y0064656D01*
X0067964Y0064594D01*
X0068726Y0064782D01*
X0069397Y0065188D01*
X0069901Y0065789D01*
X0070201Y0066514D01*
X0070298Y0067293D01*
X0070205Y0068072D01*
X0069837Y0068762D01*
X0069247Y0069279D01*
X0068575Y0069689D01*
X0067925Y0070133D01*
X0067299Y0070611D01*
X0066707Y0071130D01*
X0066268Y0071776D01*
X0066210Y0072551D01*
X0066564Y0073244D01*
X0067216Y0073664D01*
X0067991Y0073620D01*
X0068593Y0073131D01*
X0068848Y0072395D01*
X0069163Y0071924D01*
X0069951Y0071924D01*
X0070009Y0072619D01*
X0069807Y0073377D01*
X0069385Y0074037D01*
X0068758Y0074505D01*
X0068002Y0074714D01*
X0067217Y0074722D01*
X0066471Y0074483D01*
X0065831Y0074029D01*
X0065338Y0073418D01*
X0065069Y0072682D01*
X0065066Y0072583D02*
X0066226Y0072583D01*
X0066237Y0072190D02*
X0065055Y0072190D01*
X0065072Y0071798D02*
X0066267Y0071798D01*
X0066520Y0071406D02*
X0065172Y0071406D01*
X0065323Y0071014D02*
X0066839Y0071014D01*
X0067287Y0070622D02*
X0065585Y0070622D01*
X0065974Y0070229D02*
X0067798Y0070229D01*
X0068358Y0069837D02*
X0066450Y0069837D01*
X0066969Y0069445D02*
X0068975Y0069445D01*
X0069505Y0069053D02*
X0067518Y0069053D01*
X0068100Y0068660D02*
X0069891Y0068660D01*
X0070100Y0068268D02*
X0068597Y0068268D01*
X0068892Y0067876D02*
X0070228Y0067876D01*
X0070275Y0067484D02*
X0069051Y0067484D01*
X0069057Y0067092D02*
X0070273Y0067092D01*
X0070224Y0066699D02*
X0069011Y0066699D01*
X0068795Y0066307D02*
X0070115Y0066307D01*
X0069953Y0065915D02*
X0068448Y0065915D01*
X0069302Y0065131D02*
X0065728Y0065131D01*
X0065317Y0065523D02*
X0069678Y0065523D01*
X0068548Y0064738D02*
X0066454Y0064738D01*
X0066523Y0065915D02*
X0065074Y0065915D01*
X0064891Y0066307D02*
X0066193Y0066307D01*
X0065986Y0066699D02*
X0064788Y0066699D01*
X0064732Y0067092D02*
X0065949Y0067092D01*
X0065859Y0067484D02*
X0064723Y0067484D01*
X0065176Y0072975D02*
X0066427Y0072975D01*
X0066755Y0073367D02*
X0065320Y0073367D01*
X0065613Y0073759D02*
X0069563Y0073759D01*
X0069810Y0073367D02*
X0068302Y0073367D01*
X0068647Y0072975D02*
X0069914Y0072975D01*
X0070006Y0072583D02*
X0068783Y0072583D01*
X0068985Y0072190D02*
X0069973Y0072190D01*
X0069232Y0074151D02*
X0066003Y0074151D01*
X0066659Y0074544D02*
X0068617Y0074544D01*
X0069337Y0078093D02*
X0070028Y0077998D01*
X0071603Y0078003D01*
X0072389Y0078025D01*
X0073146Y0078236D01*
X0073826Y0078628D01*
X0074395Y0079170D01*
X0074761Y0079863D01*
X0074904Y0080635D01*
X0074891Y0081421D01*
X0074691Y0082180D01*
X0074255Y0082831D01*
X0073681Y0083292D01*
X0073289Y0082367D01*
X0073656Y0081733D01*
X0073767Y0080957D01*
X0073628Y0080187D01*
X0073177Y0079550D01*
X0072517Y0079129D01*
X0071346Y0078987D01*
X0070559Y0078992D01*
X0070535Y0079755D01*
X0070535Y0082905D01*
X0071119Y0083108D01*
X0071906Y0083105D01*
X0072657Y0082906D01*
X0073227Y0082440D01*
X0073642Y0083372D01*
X0073641Y0083669D01*
X0073032Y0084483D01*
X0072394Y0084133D01*
X0071672Y0084103D01*
X0070885Y0084102D01*
X0070534Y0084539D01*
X0070534Y0086901D01*
X0071041Y0087180D01*
X0071829Y0087178D01*
X0072607Y0087117D01*
X0073241Y0086662D01*
X0073544Y0085948D01*
X0073487Y0085167D01*
X0073101Y0084548D01*
X0073676Y0083752D01*
X0074215Y0084254D01*
X0074566Y0084953D01*
X0074654Y0085733D01*
X0074525Y0086506D01*
X0074168Y0087204D01*
X0073615Y0087760D01*
X0072899Y0088076D01*
X0072119Y0088167D01*
X0069757Y0088176D01*
X0069337Y0087809D01*
X0069337Y0078093D01*
X0069480Y0078074D02*
X0072564Y0078074D01*
X0073544Y0078466D02*
X0069337Y0078466D01*
X0069337Y0078858D02*
X0074067Y0078858D01*
X0074437Y0079250D02*
X0072707Y0079250D01*
X0073242Y0079642D02*
X0074644Y0079642D01*
X0074792Y0080035D02*
X0073520Y0080035D01*
X0073671Y0080427D02*
X0074865Y0080427D01*
X0074901Y0080819D02*
X0073742Y0080819D01*
X0073731Y0081211D02*
X0074894Y0081211D01*
X0074843Y0081603D02*
X0073675Y0081603D01*
X0073504Y0081996D02*
X0074740Y0081996D01*
X0074552Y0082388D02*
X0073298Y0082388D01*
X0073378Y0082780D02*
X0072811Y0082780D01*
X0073464Y0082780D02*
X0074289Y0082780D01*
X0073830Y0083172D02*
X0073630Y0083172D01*
X0073553Y0083172D02*
X0069337Y0083172D01*
X0069337Y0082780D02*
X0070535Y0082780D01*
X0070535Y0082388D02*
X0069337Y0082388D01*
X0069337Y0081996D02*
X0070535Y0081996D01*
X0070535Y0081603D02*
X0069337Y0081603D01*
X0069337Y0081211D02*
X0070535Y0081211D01*
X0070535Y0080819D02*
X0069337Y0080819D01*
X0069337Y0080427D02*
X0070535Y0080427D01*
X0070535Y0080035D02*
X0069337Y0080035D01*
X0069337Y0079642D02*
X0070538Y0079642D01*
X0070551Y0079250D02*
X0069337Y0079250D01*
X0069337Y0083565D02*
X0073641Y0083565D01*
X0073528Y0083957D02*
X0073896Y0083957D01*
X0073425Y0083957D02*
X0069337Y0083957D01*
X0069337Y0084349D02*
X0070687Y0084349D01*
X0070534Y0084741D02*
X0069337Y0084741D01*
X0069337Y0085133D02*
X0070534Y0085133D01*
X0070534Y0085526D02*
X0069337Y0085526D01*
X0069337Y0085918D02*
X0070534Y0085918D01*
X0070534Y0086310D02*
X0069337Y0086310D01*
X0069337Y0086702D02*
X0070534Y0086702D01*
X0070885Y0087094D02*
X0069337Y0087094D01*
X0069337Y0087487D02*
X0073887Y0087487D01*
X0074224Y0087094D02*
X0072638Y0087094D01*
X0073185Y0086702D02*
X0074425Y0086702D01*
X0074558Y0086310D02*
X0073391Y0086310D01*
X0073542Y0085918D02*
X0074623Y0085918D01*
X0074631Y0085526D02*
X0073513Y0085526D01*
X0073466Y0085133D02*
X0074586Y0085133D01*
X0074459Y0084741D02*
X0073222Y0084741D01*
X0073245Y0084349D02*
X0074262Y0084349D01*
X0073132Y0084349D02*
X0072788Y0084349D01*
X0073346Y0087879D02*
X0069417Y0087879D01*
X0076792Y0084272D02*
X0076422Y0083581D01*
X0076277Y0082810D01*
X0077064Y0082798D01*
X0077500Y0083214D01*
X0077889Y0083889D01*
X0078594Y0084200D01*
X0079375Y0084135D01*
X0079942Y0083633D01*
X0079792Y0082892D01*
X0079133Y0082487D01*
X0078394Y0082216D01*
X0077649Y0081961D01*
X0076956Y0081594D01*
X0076390Y0081050D01*
X0076066Y0080339D01*
X0076038Y0079555D01*
X0076324Y0078828D01*
X0076893Y0078292D01*
X0077630Y0078028D01*
X0078234Y0078007D01*
X0079004Y0078155D01*
X0079651Y0078505D01*
X0078971Y0079070D01*
X0078510Y0078947D01*
X0077738Y0079053D01*
X0077295Y0079668D01*
X0077354Y0080443D01*
X0077896Y0080996D01*
X0078614Y0081314D01*
X0079351Y0081593D01*
X0079981Y0081808D01*
X0079986Y0080234D01*
X0079636Y0079563D01*
X0079057Y0079113D01*
X0079738Y0078505D01*
X0080024Y0078355D01*
X0080579Y0077999D01*
X0081367Y0078002D01*
X0081114Y0078638D01*
X0081030Y0079417D01*
X0081012Y0083354D01*
X0080858Y0084118D01*
X0080377Y0084732D01*
X0079663Y0085050D01*
X0078882Y0085144D01*
X0078098Y0085085D01*
X0077368Y0084803D01*
X0076792Y0084272D01*
X0076876Y0084349D02*
X0080677Y0084349D01*
X0080890Y0083957D02*
X0079576Y0083957D01*
X0079928Y0083565D02*
X0080969Y0083565D01*
X0081013Y0083172D02*
X0079849Y0083172D01*
X0079610Y0082780D02*
X0081015Y0082780D01*
X0081016Y0082388D02*
X0078862Y0082388D01*
X0079382Y0081603D02*
X0076974Y0081603D01*
X0076558Y0081211D02*
X0078382Y0081211D01*
X0077722Y0080819D02*
X0076285Y0080819D01*
X0076106Y0080427D02*
X0077353Y0080427D01*
X0077323Y0080035D02*
X0076055Y0080035D01*
X0076041Y0079642D02*
X0077313Y0079642D01*
X0077596Y0079250D02*
X0076158Y0079250D01*
X0076312Y0078858D02*
X0079226Y0078858D01*
X0079343Y0078858D02*
X0081090Y0078858D01*
X0081048Y0079250D02*
X0079233Y0079250D01*
X0079678Y0079642D02*
X0081029Y0079642D01*
X0081027Y0080035D02*
X0079882Y0080035D01*
X0079985Y0080427D02*
X0081026Y0080427D01*
X0081024Y0080819D02*
X0079984Y0080819D01*
X0079983Y0081211D02*
X0081022Y0081211D01*
X0081020Y0081603D02*
X0079982Y0081603D01*
X0081018Y0081996D02*
X0077751Y0081996D01*
X0077456Y0083172D02*
X0076345Y0083172D01*
X0076419Y0083565D02*
X0077702Y0083565D01*
X0078043Y0083957D02*
X0076623Y0083957D01*
X0077300Y0084741D02*
X0080357Y0084741D01*
X0078970Y0085133D02*
X0078740Y0085133D01*
X0082851Y0084556D02*
X0082851Y0082193D01*
X0082851Y0081007D01*
X0082851Y0078644D01*
X0082991Y0077997D01*
X0083779Y0077997D01*
X0083899Y0078665D01*
X0083905Y0081815D01*
X0084012Y0082592D01*
X0084350Y0083299D01*
X0084893Y0083866D01*
X0085601Y0084192D01*
X0086367Y0084074D01*
X0086866Y0083489D01*
X0086920Y0082709D01*
X0086924Y0078772D01*
X0086938Y0077997D01*
X0087726Y0077997D01*
X0087972Y0078537D01*
X0087961Y0083262D01*
X0087829Y0084033D01*
X0087387Y0084676D01*
X0086709Y0085062D01*
X0085929Y0085138D01*
X0085166Y0084962D01*
X0084524Y0084515D01*
X0084002Y0083927D01*
X0083902Y0084430D01*
X0083832Y0085150D01*
X0083044Y0085150D01*
X0082851Y0084556D01*
X0082912Y0084741D02*
X0083872Y0084741D01*
X0083833Y0085133D02*
X0083039Y0085133D01*
X0082851Y0084349D02*
X0083918Y0084349D01*
X0083996Y0083957D02*
X0082851Y0083957D01*
X0082851Y0083565D02*
X0084604Y0083565D01*
X0084289Y0083172D02*
X0082851Y0083172D01*
X0082851Y0082780D02*
X0084102Y0082780D01*
X0083984Y0082388D02*
X0082851Y0082388D01*
X0082851Y0081996D02*
X0083930Y0081996D01*
X0083904Y0081603D02*
X0082851Y0081603D01*
X0082851Y0081211D02*
X0083903Y0081211D01*
X0083903Y0080819D02*
X0082851Y0080819D01*
X0082851Y0080427D02*
X0083902Y0080427D01*
X0083901Y0080035D02*
X0082851Y0080035D01*
X0082851Y0079642D02*
X0083900Y0079642D01*
X0083900Y0079250D02*
X0082851Y0079250D01*
X0082851Y0078858D02*
X0083899Y0078858D01*
X0083863Y0078466D02*
X0082890Y0078466D01*
X0082975Y0078074D02*
X0083793Y0078074D01*
X0081338Y0078074D02*
X0080463Y0078074D01*
X0079813Y0078466D02*
X0081183Y0078466D01*
X0079579Y0078466D02*
X0076708Y0078466D01*
X0077503Y0078074D02*
X0078581Y0078074D01*
X0078767Y0074654D02*
X0079462Y0074747D01*
X0079804Y0074302D01*
X0079804Y0064853D01*
X0079301Y0064569D01*
X0078767Y0064822D01*
X0078767Y0074654D01*
X0078767Y0074544D02*
X0079618Y0074544D01*
X0079804Y0074151D02*
X0078767Y0074151D01*
X0078767Y0073759D02*
X0079804Y0073759D01*
X0079804Y0073367D02*
X0078767Y0073367D01*
X0078767Y0072975D02*
X0079804Y0072975D01*
X0079804Y0072583D02*
X0078767Y0072583D01*
X0078767Y0072190D02*
X0079804Y0072190D01*
X0079804Y0071798D02*
X0078767Y0071798D01*
X0078767Y0071406D02*
X0079804Y0071406D01*
X0079804Y0071014D02*
X0078767Y0071014D01*
X0078767Y0070622D02*
X0079804Y0070622D01*
X0079804Y0070229D02*
X0078767Y0070229D01*
X0078767Y0069837D02*
X0079804Y0069837D01*
X0079804Y0069445D02*
X0078767Y0069445D01*
X0078767Y0069053D02*
X0079804Y0069053D01*
X0079804Y0068660D02*
X0078767Y0068660D01*
X0078767Y0068268D02*
X0079804Y0068268D01*
X0079804Y0067876D02*
X0078767Y0067876D01*
X0078767Y0067484D02*
X0079804Y0067484D01*
X0079804Y0067092D02*
X0078767Y0067092D01*
X0078767Y0066699D02*
X0079804Y0066699D01*
X0079804Y0066307D02*
X0078767Y0066307D01*
X0078767Y0065915D02*
X0079804Y0065915D01*
X0079804Y0065523D02*
X0078767Y0065523D01*
X0078767Y0065131D02*
X0079804Y0065131D01*
X0079602Y0064738D02*
X0078944Y0064738D01*
X0076609Y0065915D02*
X0075318Y0065915D01*
X0075449Y0065995D02*
X0074788Y0065594D01*
X0074005Y0065604D01*
X0073330Y0065987D01*
X0072948Y0066665D01*
X0072808Y0067439D01*
X0072878Y0068069D01*
X0072873Y0069001D01*
X0072917Y0069634D01*
X0073305Y0070311D01*
X0073952Y0070748D01*
X0074723Y0070779D01*
X0075359Y0070330D01*
X0075666Y0069614D01*
X0075232Y0068952D01*
X0072919Y0068952D01*
X0072933Y0068118D01*
X0076821Y0068118D01*
X0076891Y0068820D01*
X0076792Y0069600D01*
X0076558Y0070350D01*
X0076116Y0070996D01*
X0075479Y0071454D01*
X0074732Y0071693D01*
X0073948Y0071681D01*
X0073202Y0071437D01*
X0072566Y0070978D01*
X0072092Y0070354D01*
X0071806Y0069622D01*
X0071668Y0068847D01*
X0071638Y0068061D01*
X0071688Y0067276D01*
X0071863Y0066509D01*
X0072192Y0065796D01*
X0072687Y0065186D01*
X0073348Y0064766D01*
X0074111Y0064582D01*
X0074299Y0064572D01*
X0075081Y0064638D01*
X0075802Y0064946D01*
X0076375Y0065481D01*
X0076747Y0066172D01*
X0076941Y0066934D01*
X0076248Y0067017D01*
X0075721Y0066724D01*
X0075449Y0065995D01*
X0075566Y0066307D02*
X0076781Y0066307D01*
X0076881Y0066699D02*
X0075712Y0066699D01*
X0076398Y0065523D02*
X0072413Y0065523D01*
X0072137Y0065915D02*
X0073457Y0065915D01*
X0073149Y0066307D02*
X0071956Y0066307D01*
X0071820Y0066699D02*
X0072942Y0066699D01*
X0072871Y0067092D02*
X0071730Y0067092D01*
X0071674Y0067484D02*
X0072813Y0067484D01*
X0072856Y0067876D02*
X0071650Y0067876D01*
X0071646Y0068268D02*
X0072877Y0068268D01*
X0072930Y0068268D02*
X0076836Y0068268D01*
X0076875Y0068660D02*
X0072924Y0068660D01*
X0072875Y0068660D02*
X0071661Y0068660D01*
X0071704Y0069053D02*
X0072877Y0069053D01*
X0072904Y0069445D02*
X0071775Y0069445D01*
X0071890Y0069837D02*
X0073034Y0069837D01*
X0073258Y0070229D02*
X0072043Y0070229D01*
X0072295Y0070622D02*
X0073765Y0070622D01*
X0073159Y0071406D02*
X0075546Y0071406D01*
X0076092Y0071014D02*
X0072616Y0071014D01*
X0074945Y0070622D02*
X0076373Y0070622D01*
X0076596Y0070229D02*
X0075402Y0070229D01*
X0075571Y0069837D02*
X0076718Y0069837D01*
X0076812Y0069445D02*
X0075555Y0069445D01*
X0075298Y0069053D02*
X0076861Y0069053D01*
X0075999Y0065131D02*
X0072774Y0065131D01*
X0073463Y0064738D02*
X0075315Y0064738D01*
X0081966Y0066389D02*
X0082321Y0065689D01*
X0082843Y0065103D01*
X0083527Y0064721D01*
X0084487Y0064570D01*
X0085265Y0064671D01*
X0085967Y0065018D01*
X0086510Y0065584D01*
X0086850Y0066291D01*
X0086970Y0067017D01*
X0086182Y0067017D01*
X0085761Y0066599D01*
X0085424Y0065902D01*
X0084724Y0065574D01*
X0083944Y0065638D01*
X0083304Y0066079D01*
X0082976Y0066788D01*
X0082859Y0067566D01*
X0083054Y0068072D01*
X0082855Y0069035D01*
X0083020Y0069753D01*
X0083457Y0070398D01*
X0084133Y0070788D01*
X0084901Y0070731D01*
X0085495Y0070228D01*
X0085747Y0069489D01*
X0085167Y0068952D01*
X0083592Y0068952D01*
X0082893Y0068985D01*
X0083120Y0068118D01*
X0086221Y0068118D01*
X0086967Y0068159D01*
X0086942Y0068946D01*
X0086826Y0069724D01*
X0086564Y0070465D01*
X0086084Y0071082D01*
X0085425Y0071509D01*
X0084667Y0071707D01*
X0083884Y0071657D01*
X0083151Y0071377D01*
X0082538Y0070887D01*
X0082095Y0070241D01*
X0081836Y0069498D01*
X0081717Y0068721D01*
X0081701Y0067934D01*
X0081768Y0067150D01*
X0081966Y0066389D01*
X0082007Y0066307D02*
X0083198Y0066307D01*
X0083017Y0066699D02*
X0081885Y0066699D01*
X0081783Y0067092D02*
X0082930Y0067092D01*
X0082871Y0067484D02*
X0081739Y0067484D01*
X0081706Y0067876D02*
X0082978Y0067876D01*
X0083013Y0068268D02*
X0081707Y0068268D01*
X0081715Y0068660D02*
X0082932Y0068660D01*
X0082978Y0068660D02*
X0086951Y0068660D01*
X0086964Y0068268D02*
X0083081Y0068268D01*
X0082859Y0069053D02*
X0081768Y0069053D01*
X0081828Y0069445D02*
X0082949Y0069445D01*
X0083077Y0069837D02*
X0081954Y0069837D01*
X0082091Y0070229D02*
X0083343Y0070229D01*
X0083845Y0070622D02*
X0082356Y0070622D01*
X0082696Y0071014D02*
X0086137Y0071014D01*
X0086442Y0070622D02*
X0085030Y0070622D01*
X0085494Y0070229D02*
X0086647Y0070229D01*
X0086786Y0069837D02*
X0085628Y0069837D01*
X0085699Y0069445D02*
X0086868Y0069445D01*
X0086926Y0069053D02*
X0085275Y0069053D01*
X0085862Y0066699D02*
X0086917Y0066699D01*
X0086853Y0066307D02*
X0085620Y0066307D01*
X0085431Y0065915D02*
X0086669Y0065915D01*
X0086451Y0065523D02*
X0082469Y0065523D01*
X0082207Y0065915D02*
X0083542Y0065915D01*
X0082819Y0065131D02*
X0086075Y0065131D01*
X0085400Y0064738D02*
X0083496Y0064738D01*
X0088452Y0066614D02*
X0088770Y0065896D01*
X0089273Y0065293D01*
X0089917Y0064844D01*
X0090662Y0064599D01*
X0091287Y0064579D01*
X0092055Y0064738D01*
X0092733Y0065132D01*
X0093253Y0065719D01*
X0093571Y0066436D01*
X0093696Y0067212D01*
X0093299Y0067594D01*
X0092512Y0067594D01*
X0092456Y0066827D01*
X0092173Y0066100D01*
X0091571Y0065606D01*
X0090799Y0065538D01*
X0090116Y0065912D01*
X0089683Y0066560D01*
X0089504Y0067324D01*
X0089472Y0068111D01*
X0089528Y0068896D01*
X0089706Y0069661D01*
X0090115Y0070326D01*
X0090783Y0070730D01*
X0091556Y0070703D01*
X0092128Y0070186D01*
X0092367Y0069440D01*
X0092997Y0069262D01*
X0093520Y0069514D01*
X0093337Y0070278D01*
X0092937Y0070952D01*
X0092330Y0071446D01*
X0091584Y0071684D01*
X0090799Y0071692D01*
X0090050Y0071461D01*
X0089404Y0071015D01*
X0088889Y0070422D01*
X0088541Y0069718D01*
X0088348Y0068955D01*
X0088276Y0068172D01*
X0088298Y0067385D01*
X0088452Y0066614D01*
X0088435Y0066699D02*
X0089650Y0066699D01*
X0089559Y0067092D02*
X0088357Y0067092D01*
X0088295Y0067484D02*
X0089498Y0067484D01*
X0089482Y0067876D02*
X0088284Y0067876D01*
X0088284Y0068268D02*
X0089484Y0068268D01*
X0089512Y0068660D02*
X0088320Y0068660D01*
X0088372Y0069053D02*
X0089565Y0069053D01*
X0089656Y0069445D02*
X0088472Y0069445D01*
X0088600Y0069837D02*
X0089814Y0069837D01*
X0090056Y0070229D02*
X0088794Y0070229D01*
X0089063Y0070622D02*
X0090604Y0070622D01*
X0089971Y0071406D02*
X0092380Y0071406D01*
X0092861Y0071014D02*
X0089403Y0071014D01*
X0091646Y0070622D02*
X0093133Y0070622D01*
X0093349Y0070229D02*
X0092079Y0070229D01*
X0092239Y0069837D02*
X0093443Y0069837D01*
X0093376Y0069445D02*
X0092365Y0069445D01*
X0092504Y0067484D02*
X0093414Y0067484D01*
X0093677Y0067092D02*
X0092475Y0067092D01*
X0092406Y0066699D02*
X0093613Y0066699D01*
X0093514Y0066307D02*
X0092254Y0066307D01*
X0091948Y0065915D02*
X0093340Y0065915D01*
X0093079Y0065523D02*
X0089081Y0065523D01*
X0088762Y0065915D02*
X0090114Y0065915D01*
X0089852Y0066307D02*
X0088588Y0066307D01*
X0089506Y0065131D02*
X0092731Y0065131D01*
X0092055Y0064738D02*
X0090239Y0064738D01*
X0094901Y0071047D02*
X0095529Y0070887D01*
X0096316Y0070887D01*
X0096569Y0070352D01*
X0096575Y0066414D01*
X0096593Y0065627D01*
X0096956Y0064947D01*
X0097664Y0064623D01*
X0098289Y0064571D01*
X0099073Y0064638D01*
X0099847Y0064782D01*
X0100278Y0065226D01*
X0100245Y0065963D01*
X0099503Y0065702D01*
X0098728Y0065569D01*
X0097949Y0065637D01*
X0097621Y0066280D01*
X0097616Y0070218D01*
X0097734Y0070887D01*
X0099309Y0070887D01*
X0099958Y0071026D01*
X0099866Y0071721D01*
X0098291Y0071721D01*
X0097616Y0071834D01*
X0097616Y0073409D01*
X0097439Y0074020D01*
X0096652Y0074020D01*
X0096569Y0073316D01*
X0096569Y0071741D01*
X0095801Y0071721D01*
X0095013Y0071721D01*
X0094901Y0071047D01*
X0095030Y0071014D02*
X0099900Y0071014D01*
X0099907Y0071406D02*
X0094961Y0071406D01*
X0096569Y0071798D02*
X0097833Y0071798D01*
X0097616Y0072190D02*
X0096569Y0072190D01*
X0096569Y0072583D02*
X0097616Y0072583D01*
X0097616Y0072975D02*
X0096569Y0072975D01*
X0096575Y0073367D02*
X0097616Y0073367D01*
X0097515Y0073759D02*
X0096621Y0073759D01*
X0096442Y0070622D02*
X0097687Y0070622D01*
X0097618Y0070229D02*
X0096569Y0070229D01*
X0096570Y0069837D02*
X0097617Y0069837D01*
X0097617Y0069445D02*
X0096570Y0069445D01*
X0096571Y0069053D02*
X0097618Y0069053D01*
X0097618Y0068660D02*
X0096572Y0068660D01*
X0096572Y0068268D02*
X0097619Y0068268D01*
X0097619Y0067876D02*
X0096573Y0067876D01*
X0096574Y0067484D02*
X0097620Y0067484D01*
X0097620Y0067092D02*
X0096574Y0067092D01*
X0096575Y0066699D02*
X0097621Y0066699D01*
X0097621Y0066307D02*
X0096578Y0066307D01*
X0096587Y0065915D02*
X0097807Y0065915D01*
X0096649Y0065523D02*
X0100265Y0065523D01*
X0100247Y0065915D02*
X0100109Y0065915D01*
X0100185Y0065131D02*
X0096858Y0065131D01*
X0097412Y0064738D02*
X0099611Y0064738D01*
X0099852Y0052327D02*
X0099390Y0052001D01*
X0099390Y0051213D01*
X0098783Y0051033D01*
X0098450Y0050579D01*
X0099210Y0050552D01*
X0099391Y0049944D01*
X0099400Y0047582D01*
X0099908Y0047037D01*
X0100079Y0046997D01*
X0100863Y0047025D01*
X0101497Y0047295D01*
X0101202Y0047664D01*
X0100428Y0047538D01*
X0099989Y0048029D01*
X0099989Y0050391D01*
X0100616Y0050552D01*
X0101315Y0050640D01*
X0100920Y0051033D01*
X0100133Y0051033D01*
X0099852Y0052327D01*
X0099882Y0052188D02*
X0099655Y0052188D01*
X0099390Y0051795D02*
X0099967Y0051795D01*
X0100052Y0051403D02*
X0099390Y0051403D01*
X0098767Y0051011D02*
X0100943Y0051011D01*
X0101145Y0050619D02*
X0098479Y0050619D01*
X0099307Y0050227D02*
X0099989Y0050227D01*
X0099989Y0049834D02*
X0099391Y0049834D01*
X0099393Y0049442D02*
X0099989Y0049442D01*
X0099989Y0049050D02*
X0099394Y0049050D01*
X0099396Y0048658D02*
X0099989Y0048658D01*
X0099989Y0048265D02*
X0099397Y0048265D01*
X0099399Y0047873D02*
X0100128Y0047873D01*
X0099494Y0047481D02*
X0101348Y0047481D01*
X0101013Y0047089D02*
X0099860Y0047089D01*
X0097463Y0048148D02*
X0097268Y0048691D01*
X0096816Y0048342D01*
X0096467Y0047662D01*
X0095722Y0047576D01*
X0095216Y0048150D01*
X0095114Y0048927D01*
X0095201Y0049707D01*
X0095617Y0050355D01*
X0096363Y0050420D01*
X0096749Y0049765D01*
X0097422Y0049654D01*
X0097210Y0050405D01*
X0096634Y0050922D01*
X0095860Y0051011D01*
X0095151Y0050693D01*
X0094665Y0050082D01*
X0094459Y0049326D01*
X0094454Y0048540D01*
X0094680Y0047791D01*
X0095215Y0047223D01*
X0096462Y0047035D01*
X0097119Y0047450D01*
X0097463Y0048148D01*
X0097421Y0048265D02*
X0096777Y0048265D01*
X0096575Y0047873D02*
X0097328Y0047873D01*
X0097134Y0047481D02*
X0094973Y0047481D01*
X0094656Y0047873D02*
X0095460Y0047873D01*
X0095201Y0048265D02*
X0094537Y0048265D01*
X0094455Y0048658D02*
X0095149Y0048658D01*
X0095127Y0049050D02*
X0094457Y0049050D01*
X0094491Y0049442D02*
X0095171Y0049442D01*
X0095282Y0049834D02*
X0094598Y0049834D01*
X0094780Y0050227D02*
X0095535Y0050227D01*
X0095092Y0050619D02*
X0096972Y0050619D01*
X0097260Y0050227D02*
X0096477Y0050227D01*
X0096708Y0049834D02*
X0097371Y0049834D01*
X0097280Y0048658D02*
X0097224Y0048658D01*
X0096548Y0047089D02*
X0096105Y0047089D01*
X0093404Y0047743D02*
X0093446Y0048369D01*
X0092871Y0048127D01*
X0092383Y0047567D01*
X0091631Y0047695D01*
X0091264Y0048369D01*
X0091372Y0048943D01*
X0091346Y0049511D01*
X0091411Y0050095D01*
X0092047Y0050523D01*
X0092718Y0050188D01*
X0092873Y0049509D01*
X0092128Y0049464D01*
X0091390Y0049462D01*
X0091431Y0048991D01*
X0092957Y0048991D01*
X0093551Y0049179D01*
X0093461Y0049960D01*
X0093083Y0050637D01*
X0092397Y0051000D01*
X0091620Y0050941D01*
X0090986Y0050490D01*
X0090653Y0049784D01*
X0090576Y0049003D01*
X0090656Y0048222D01*
X0090993Y0047516D01*
X0091620Y0047061D01*
X0092130Y0046983D01*
X0092885Y0047166D01*
X0093404Y0047743D01*
X0093413Y0047873D02*
X0092650Y0047873D01*
X0093168Y0047481D02*
X0091042Y0047481D01*
X0090823Y0047873D02*
X0091534Y0047873D01*
X0091320Y0048265D02*
X0090652Y0048265D01*
X0090611Y0048658D02*
X0091319Y0048658D01*
X0091367Y0049050D02*
X0090580Y0049050D01*
X0090619Y0049442D02*
X0091349Y0049442D01*
X0091391Y0049442D02*
X0093521Y0049442D01*
X0093476Y0049834D02*
X0092799Y0049834D01*
X0092641Y0050227D02*
X0093312Y0050227D01*
X0093093Y0050619D02*
X0091167Y0050619D01*
X0090862Y0050227D02*
X0091606Y0050227D01*
X0091382Y0049834D02*
X0090677Y0049834D01*
X0091426Y0049050D02*
X0093143Y0049050D01*
X0093200Y0048265D02*
X0093439Y0048265D01*
X0092568Y0047089D02*
X0091581Y0047089D01*
X0089530Y0047755D02*
X0088791Y0047559D01*
X0088060Y0047712D01*
X0088029Y0048492D01*
X0088026Y0050067D01*
X0088328Y0050552D01*
X0089115Y0050552D01*
X0089302Y0051033D01*
X0088514Y0051033D01*
X0088025Y0051331D01*
X0088025Y0052119D01*
X0087446Y0052327D01*
X0087437Y0051547D01*
X0087164Y0051033D01*
X0086486Y0050924D01*
X0086901Y0050552D01*
X0087437Y0050300D01*
X0087442Y0047938D01*
X0087638Y0047205D01*
X0088576Y0046987D01*
X0089353Y0047111D01*
X0089530Y0047755D01*
X0089455Y0047481D02*
X0087564Y0047481D01*
X0087459Y0047873D02*
X0088054Y0047873D01*
X0088038Y0048265D02*
X0087441Y0048265D01*
X0087440Y0048658D02*
X0088029Y0048658D01*
X0088028Y0049050D02*
X0087440Y0049050D01*
X0087439Y0049442D02*
X0088027Y0049442D01*
X0088027Y0049834D02*
X0087438Y0049834D01*
X0087437Y0050227D02*
X0088125Y0050227D01*
X0089141Y0050619D02*
X0086826Y0050619D01*
X0087028Y0051011D02*
X0089293Y0051011D01*
X0088025Y0051403D02*
X0087361Y0051403D01*
X0087440Y0051795D02*
X0088025Y0051795D01*
X0087833Y0052188D02*
X0087444Y0052188D01*
X0085093Y0050643D02*
X0085521Y0049994D01*
X0085654Y0049220D01*
X0085624Y0048435D01*
X0085376Y0047693D01*
X0084807Y0047159D01*
X0084050Y0046985D01*
X0084749Y0047851D01*
X0084992Y0048590D01*
X0084995Y0049377D01*
X0084771Y0050124D01*
X0084109Y0050495D01*
X0083424Y0050167D01*
X0083174Y0049431D01*
X0083163Y0048645D01*
X0083378Y0047895D01*
X0084035Y0047512D01*
X0083488Y0047098D01*
X0082870Y0047571D01*
X0082563Y0048289D01*
X0082500Y0049072D01*
X0082596Y0049852D01*
X0082962Y0050539D01*
X0083620Y0050956D01*
X0084398Y0050995D01*
X0085093Y0050643D01*
X0085108Y0050619D02*
X0083088Y0050619D01*
X0082796Y0050227D02*
X0083548Y0050227D01*
X0083311Y0049834D02*
X0082594Y0049834D01*
X0082546Y0049442D02*
X0083177Y0049442D01*
X0083169Y0049050D02*
X0082502Y0049050D01*
X0082534Y0048658D02*
X0083163Y0048658D01*
X0083272Y0048265D02*
X0082573Y0048265D01*
X0082741Y0047873D02*
X0083416Y0047873D01*
X0082988Y0047481D02*
X0083994Y0047481D01*
X0084134Y0047089D02*
X0084501Y0047089D01*
X0084450Y0047481D02*
X0085150Y0047481D01*
X0085436Y0047873D02*
X0084756Y0047873D01*
X0084886Y0048265D02*
X0085567Y0048265D01*
X0085632Y0048658D02*
X0084993Y0048658D01*
X0084994Y0049050D02*
X0085647Y0049050D01*
X0085616Y0049442D02*
X0084975Y0049442D01*
X0084858Y0049834D02*
X0085548Y0049834D01*
X0085367Y0050227D02*
X0084588Y0050227D01*
X0081001Y0050844D02*
X0080404Y0050997D01*
X0079738Y0050594D01*
X0079401Y0050427D01*
X0079215Y0051033D01*
X0078809Y0050651D01*
X0078809Y0049076D01*
X0078809Y0048581D01*
X0078809Y0047006D01*
X0079397Y0047133D01*
X0079397Y0048708D01*
X0079529Y0049468D01*
X0080000Y0050092D01*
X0080728Y0050346D01*
X0081001Y0050844D01*
X0080877Y0050619D02*
X0079779Y0050619D01*
X0079342Y0050619D02*
X0078809Y0050619D01*
X0078809Y0050227D02*
X0080386Y0050227D01*
X0079805Y0049834D02*
X0078809Y0049834D01*
X0078809Y0049442D02*
X0079525Y0049442D01*
X0079456Y0049050D02*
X0078809Y0049050D01*
X0078809Y0048658D02*
X0079397Y0048658D01*
X0079397Y0048265D02*
X0078809Y0048265D01*
X0078809Y0047873D02*
X0079397Y0047873D01*
X0079397Y0047481D02*
X0078809Y0047481D01*
X0078809Y0047089D02*
X0079191Y0047089D01*
X0077059Y0049659D02*
X0077573Y0050242D01*
X0077739Y0051006D01*
X0077635Y0051782D01*
X0077193Y0052420D01*
X0076477Y0052722D01*
X0075690Y0052743D01*
X0074902Y0052744D01*
X0074639Y0052219D01*
X0074639Y0049857D01*
X0074639Y0049139D01*
X0074639Y0047564D01*
X0074832Y0046970D01*
X0075313Y0047277D01*
X0075313Y0048852D01*
X0075508Y0049383D01*
X0075573Y0050040D01*
X0075313Y0050496D01*
X0075313Y0052071D01*
X0075995Y0052178D01*
X0076737Y0051964D01*
X0077078Y0051280D01*
X0076977Y0050508D01*
X0076377Y0050039D01*
X0075647Y0050000D01*
X0075574Y0049430D01*
X0076313Y0049439D01*
X0077059Y0049659D01*
X0077214Y0049834D02*
X0075626Y0049834D01*
X0075553Y0049834D02*
X0074639Y0049834D01*
X0074639Y0049442D02*
X0075514Y0049442D01*
X0075576Y0049442D02*
X0076323Y0049442D01*
X0076617Y0050227D02*
X0077560Y0050227D01*
X0077655Y0050619D02*
X0076992Y0050619D01*
X0077043Y0051011D02*
X0077738Y0051011D01*
X0077686Y0051403D02*
X0077017Y0051403D01*
X0076821Y0051795D02*
X0077626Y0051795D01*
X0077354Y0052188D02*
X0074639Y0052188D01*
X0074639Y0051795D02*
X0075313Y0051795D01*
X0075313Y0051403D02*
X0074639Y0051403D01*
X0074639Y0051011D02*
X0075313Y0051011D01*
X0075313Y0050619D02*
X0074639Y0050619D01*
X0074639Y0050227D02*
X0075467Y0050227D01*
X0075386Y0049050D02*
X0074639Y0049050D01*
X0074639Y0048658D02*
X0075313Y0048658D01*
X0075313Y0048265D02*
X0074639Y0048265D01*
X0074639Y0047873D02*
X0075313Y0047873D01*
X0075313Y0047481D02*
X0074666Y0047481D01*
X0074794Y0047089D02*
X0075018Y0047089D01*
X0074820Y0052580D02*
X0076814Y0052580D01*
X0079191Y0051011D02*
X0079221Y0051011D01*
X0069912Y0050176D02*
X0069618Y0050882D01*
X0068893Y0051141D01*
X0068135Y0050967D01*
X0067615Y0050486D01*
X0067615Y0052848D01*
X0067016Y0052685D01*
X0067022Y0047173D01*
X0067538Y0047087D01*
X0067616Y0047799D01*
X0067623Y0049374D01*
X0067844Y0050119D01*
X0068430Y0050627D01*
X0069151Y0050459D01*
X0069323Y0049710D01*
X0069325Y0047348D01*
X0069852Y0047092D01*
X0069920Y0047813D01*
X0069922Y0049388D01*
X0069912Y0050176D01*
X0069891Y0050227D02*
X0069204Y0050227D01*
X0069295Y0049834D02*
X0069917Y0049834D01*
X0069922Y0049442D02*
X0069324Y0049442D01*
X0069324Y0049050D02*
X0069922Y0049050D01*
X0069921Y0048658D02*
X0069324Y0048658D01*
X0069325Y0048265D02*
X0069921Y0048265D01*
X0069920Y0047873D02*
X0069325Y0047873D01*
X0069325Y0047481D02*
X0069889Y0047481D01*
X0067616Y0047873D02*
X0067021Y0047873D01*
X0067021Y0047481D02*
X0067581Y0047481D01*
X0067539Y0047089D02*
X0067529Y0047089D01*
X0067618Y0048265D02*
X0067020Y0048265D01*
X0067020Y0048658D02*
X0067620Y0048658D01*
X0067622Y0049050D02*
X0067020Y0049050D01*
X0067019Y0049442D02*
X0067644Y0049442D01*
X0067760Y0049834D02*
X0067019Y0049834D01*
X0067019Y0050227D02*
X0067969Y0050227D01*
X0067758Y0050619D02*
X0068421Y0050619D01*
X0068466Y0050619D02*
X0069728Y0050619D01*
X0069256Y0051011D02*
X0068327Y0051011D01*
X0067615Y0051011D02*
X0067018Y0051011D01*
X0067017Y0051403D02*
X0067615Y0051403D01*
X0067615Y0051795D02*
X0067017Y0051795D01*
X0067017Y0052188D02*
X0067615Y0052188D01*
X0067615Y0052580D02*
X0067016Y0052580D01*
X0067018Y0050619D02*
X0067615Y0050619D01*
X0083228Y0071406D02*
X0085584Y0071406D01*
X0086937Y0078074D02*
X0087761Y0078074D01*
X0087940Y0078466D02*
X0086930Y0078466D01*
X0086924Y0078858D02*
X0087972Y0078858D01*
X0087971Y0079250D02*
X0086924Y0079250D01*
X0086923Y0079642D02*
X0087970Y0079642D01*
X0087969Y0080035D02*
X0086923Y0080035D01*
X0086922Y0080427D02*
X0087968Y0080427D01*
X0087967Y0080819D02*
X0086922Y0080819D01*
X0086921Y0081211D02*
X0087966Y0081211D01*
X0087965Y0081603D02*
X0086921Y0081603D01*
X0086920Y0081996D02*
X0087964Y0081996D01*
X0087963Y0082388D02*
X0086920Y0082388D01*
X0086915Y0082780D02*
X0087962Y0082780D01*
X0087961Y0083172D02*
X0086888Y0083172D01*
X0086801Y0083565D02*
X0087909Y0083565D01*
X0087842Y0083957D02*
X0086467Y0083957D01*
X0087272Y0084741D02*
X0084848Y0084741D01*
X0084376Y0084349D02*
X0087612Y0084349D01*
X0085976Y0085133D02*
X0085910Y0085133D01*
X0085091Y0083957D02*
X0084028Y0083957D01*
X0089587Y0083957D02*
X0090638Y0083957D01*
X0090638Y0084349D02*
X0089587Y0084349D01*
X0089587Y0084741D02*
X0090638Y0084741D01*
X0090637Y0085133D02*
X0089587Y0085133D01*
X0089587Y0085526D02*
X0090637Y0085526D01*
X0090637Y0085918D02*
X0089587Y0085918D01*
X0089587Y0086310D02*
X0090636Y0086310D01*
X0090636Y0086702D02*
X0089587Y0086702D01*
X0089587Y0087094D02*
X0090636Y0087094D01*
X0090635Y0087487D02*
X0089587Y0087487D01*
X0089587Y0087879D02*
X0090544Y0087879D01*
X0090635Y0087793D02*
X0090230Y0088176D01*
X0089587Y0088031D01*
X0089587Y0083306D01*
X0089587Y0082961D01*
X0089587Y0078236D01*
X0090136Y0077997D01*
X0090635Y0078286D01*
X0090635Y0079860D01*
X0090730Y0080612D01*
X0091775Y0081790D01*
X0092139Y0081098D01*
X0093566Y0078290D01*
X0094179Y0077999D01*
X0094885Y0078053D01*
X0092716Y0082250D01*
X0092741Y0082916D01*
X0094228Y0084752D01*
X0094251Y0085149D01*
X0093464Y0085150D01*
X0092888Y0084707D01*
X0090910Y0082256D01*
X0090640Y0082281D01*
X0090635Y0087793D01*
X0092933Y0084741D02*
X0094219Y0084741D01*
X0094250Y0085133D02*
X0093442Y0085133D01*
X0093901Y0084349D02*
X0092599Y0084349D01*
X0092283Y0083957D02*
X0093584Y0083957D01*
X0093266Y0083565D02*
X0091966Y0083565D01*
X0091649Y0083172D02*
X0092948Y0083172D01*
X0092736Y0082780D02*
X0091333Y0082780D01*
X0091016Y0082388D02*
X0092721Y0082388D01*
X0092847Y0081996D02*
X0089587Y0081996D01*
X0089587Y0082388D02*
X0090640Y0082388D01*
X0090639Y0082780D02*
X0089587Y0082780D01*
X0089587Y0083172D02*
X0090639Y0083172D01*
X0090639Y0083565D02*
X0089587Y0083565D01*
X0089587Y0081603D02*
X0091610Y0081603D01*
X0091873Y0081603D02*
X0093050Y0081603D01*
X0093253Y0081211D02*
X0092080Y0081211D01*
X0092281Y0080819D02*
X0093455Y0080819D01*
X0093658Y0080427D02*
X0092480Y0080427D01*
X0092679Y0080035D02*
X0093861Y0080035D01*
X0094063Y0079642D02*
X0092879Y0079642D01*
X0093078Y0079250D02*
X0094266Y0079250D01*
X0094469Y0078858D02*
X0093277Y0078858D01*
X0093477Y0078466D02*
X0094671Y0078466D01*
X0094874Y0078074D02*
X0094023Y0078074D01*
X0091262Y0081211D02*
X0089587Y0081211D01*
X0089587Y0080819D02*
X0090913Y0080819D01*
X0090706Y0080427D02*
X0089587Y0080427D01*
X0089587Y0080035D02*
X0090657Y0080035D01*
X0090635Y0079642D02*
X0089587Y0079642D01*
X0089587Y0079250D02*
X0090635Y0079250D01*
X0090635Y0078858D02*
X0089587Y0078858D01*
X0089587Y0078466D02*
X0090635Y0078466D01*
X0090268Y0078074D02*
X0089960Y0078074D01*
X0095860Y0051011D02*
X0095861Y0051011D01*
X0089215Y0047089D02*
X0088137Y0047089D01*
X0054807Y0094939D02*
X0054075Y0094939D01*
D12*
X0021107Y0161765D02*
X0021107Y0167865D01*
X0017719Y0167865D02*
X0017719Y0161765D01*
X0015399Y0161765D02*
X0013365Y0167865D01*
X0011332Y0161765D01*
X0011840Y0163290D02*
X0014890Y0163290D01*
X0017719Y0167865D02*
X0021107Y0161765D01*
X0009515Y0161765D02*
X0006804Y0161765D01*
X0006804Y0167865D01*
X0091529Y0167865D02*
X0091529Y0161765D01*
X0091529Y0165154D02*
X0094918Y0165154D01*
X0094918Y0167865D02*
X0094918Y0161765D01*
X0097346Y0161765D02*
X0097685Y0161765D01*
X0097685Y0162104D01*
X0097346Y0162104D01*
X0097346Y0161765D01*
X0100113Y0161765D02*
X0100113Y0167865D01*
X0101807Y0167865D01*
X0101888Y0167863D01*
X0101968Y0167857D01*
X0102048Y0167848D01*
X0102128Y0167834D01*
X0102206Y0167817D01*
X0102284Y0167796D01*
X0102361Y0167772D01*
X0102437Y0167744D01*
X0102511Y0167712D01*
X0102583Y0167677D01*
X0102654Y0167638D01*
X0102723Y0167596D01*
X0102790Y0167551D01*
X0102854Y0167503D01*
X0102916Y0167451D01*
X0102976Y0167397D01*
X0103033Y0167340D01*
X0103087Y0167280D01*
X0103139Y0167218D01*
X0103187Y0167154D01*
X0103232Y0167087D01*
X0103274Y0167018D01*
X0103313Y0166947D01*
X0103348Y0166875D01*
X0103380Y0166801D01*
X0103408Y0166725D01*
X0103432Y0166648D01*
X0103453Y0166570D01*
X0103470Y0166492D01*
X0103484Y0166412D01*
X0103493Y0166332D01*
X0103499Y0166252D01*
X0103501Y0166171D01*
X0103502Y0166171D02*
X0103502Y0163459D01*
X0103501Y0163459D02*
X0103499Y0163378D01*
X0103493Y0163298D01*
X0103484Y0163218D01*
X0103470Y0163138D01*
X0103453Y0163060D01*
X0103432Y0162982D01*
X0103408Y0162905D01*
X0103380Y0162829D01*
X0103348Y0162755D01*
X0103313Y0162683D01*
X0103274Y0162612D01*
X0103232Y0162543D01*
X0103187Y0162476D01*
X0103139Y0162412D01*
X0103087Y0162350D01*
X0103033Y0162290D01*
X0102976Y0162233D01*
X0102916Y0162179D01*
X0102854Y0162127D01*
X0102790Y0162079D01*
X0102723Y0162034D01*
X0102654Y0161992D01*
X0102583Y0161953D01*
X0102511Y0161918D01*
X0102437Y0161886D01*
X0102361Y0161858D01*
X0102284Y0161834D01*
X0102206Y0161813D01*
X0102128Y0161796D01*
X0102048Y0161782D01*
X0101968Y0161773D01*
X0101888Y0161767D01*
X0101807Y0161765D01*
X0100113Y0161765D01*
M02*
