G75*
%MOIN*%
%OFA0B0*%
%FSLAX25Y25*%
%IPPOS*%
%LPD*%
%AMOC8*
5,1,8,0,0,1.08239X$1,22.5*
%
%ADD10C,0.00400*%
%ADD11R,0.14488X0.06929*%
%ADD12C,0.00394*%
D10*
X0001200Y0001200D02*
X0001200Y0185528D01*
X0111257Y0185528D01*
X0111257Y0001200D01*
X0101357Y0001200D01*
X0101357Y0021357D01*
X0066712Y0021357D01*
X0066712Y0001200D01*
X0052539Y0001200D01*
X0052539Y0021357D01*
X0010019Y0021357D01*
X0010019Y0001200D01*
X0001200Y0001200D01*
X0018208Y0040255D02*
X0018208Y0101357D01*
X0050019Y0101357D01*
X0050019Y0040255D01*
X0018208Y0040255D01*
D11*
X0014075Y0173245D03*
X0097115Y0173242D03*
D12*
X0074366Y0145836D02*
X0075592Y0144844D01*
X0076188Y0144329D01*
X0076384Y0143585D01*
X0076104Y0142891D01*
X0075488Y0142399D01*
X0073619Y0140950D01*
X0073005Y0140455D01*
X0072537Y0139861D01*
X0073067Y0139308D01*
X0073694Y0138831D01*
X0075606Y0137439D01*
X0076231Y0136958D01*
X0076265Y0136186D01*
X0076262Y0130667D01*
X0076249Y0129091D01*
X0076233Y0128302D01*
X0076184Y0127516D01*
X0075616Y0126974D01*
X0074419Y0125948D01*
X0072605Y0124431D01*
X0068959Y0121417D01*
X0068267Y0121150D01*
X0046192Y0121160D01*
X0039885Y0121182D01*
X0036732Y0121211D01*
X0036144Y0121232D01*
X0035562Y0121734D01*
X0035395Y0122495D01*
X0035409Y0123283D01*
X0035436Y0124071D01*
X0035458Y0125648D01*
X0035467Y0127224D01*
X0035471Y0130378D01*
X0035687Y0131073D01*
X0036264Y0131534D01*
X0038117Y0129745D01*
X0038094Y0128218D01*
X0038089Y0127429D01*
X0038093Y0126641D01*
X0038105Y0125853D01*
X0038157Y0124277D01*
X0038451Y0123763D01*
X0044758Y0123763D01*
X0045026Y0124278D01*
X0044999Y0126643D01*
X0044997Y0126843D01*
X0044974Y0129208D01*
X0045330Y0129831D01*
X0045982Y0130274D01*
X0047298Y0131142D01*
X0053914Y0135430D01*
X0054579Y0135854D01*
X0055278Y0136215D01*
X0056059Y0136270D01*
X0056787Y0135976D01*
X0057472Y0135586D01*
X0060155Y0133930D01*
X0064838Y0131009D01*
X0065505Y0130589D01*
X0066166Y0130159D01*
X0066905Y0130116D01*
X0067590Y0130506D01*
X0068250Y0130937D01*
X0068901Y0131382D01*
X0069535Y0131851D01*
X0069427Y0132465D01*
X0068770Y0132900D01*
X0067439Y0133745D01*
X0062746Y0136648D01*
X0061416Y0137496D01*
X0060761Y0137935D01*
X0060331Y0138570D01*
X0060477Y0139327D01*
X0061023Y0139883D01*
X0061679Y0140321D01*
X0062344Y0140743D01*
X0063014Y0141159D01*
X0065707Y0142800D01*
X0066377Y0143216D01*
X0067037Y0143647D01*
X0066779Y0144053D01*
X0065991Y0144072D01*
X0062838Y0144075D01*
X0062058Y0144045D01*
X0058716Y0141954D01*
X0058053Y0141528D01*
X0056737Y0140663D01*
X0055961Y0140588D01*
X0055200Y0140777D01*
X0054520Y0141176D01*
X0053849Y0141590D01*
X0052515Y0142431D01*
X0050524Y0143707D01*
X0049201Y0144565D01*
X0047885Y0145433D01*
X0047232Y0145875D01*
X0046634Y0146383D01*
X0046494Y0147135D01*
X0046843Y0147821D01*
X0047466Y0148303D01*
X0048795Y0149150D01*
X0049438Y0149605D01*
X0048872Y0149895D01*
X0048083Y0149913D01*
X0047295Y0149918D01*
X0043353Y0149919D01*
X0042669Y0149538D01*
X0040636Y0148330D01*
X0039964Y0147918D01*
X0039327Y0147455D01*
X0039643Y0146896D01*
X0041642Y0145632D01*
X0047651Y0141859D01*
X0049645Y0140586D01*
X0050306Y0140156D01*
X0050961Y0139719D01*
X0051345Y0139075D01*
X0051269Y0138296D01*
X0050809Y0137682D01*
X0049473Y0136845D01*
X0046790Y0135188D01*
X0038724Y0130243D01*
X0038157Y0129823D01*
X0036341Y0131595D01*
X0037544Y0132537D01*
X0043774Y0137368D01*
X0045016Y0138339D01*
X0044906Y0138981D01*
X0044328Y0139516D01*
X0043726Y0140025D01*
X0043117Y0140527D01*
X0039440Y0143502D01*
X0037607Y0144997D01*
X0036393Y0146003D01*
X0035797Y0146519D01*
X0035590Y0147257D01*
X0035690Y0148035D01*
X0036276Y0148559D01*
X0036885Y0149060D01*
X0038110Y0150053D01*
X0039962Y0151524D01*
X0040585Y0152007D01*
X0041218Y0152476D01*
X0042001Y0152530D01*
X0043577Y0152550D01*
X0045942Y0152560D01*
X0050673Y0152563D01*
X0065652Y0152539D01*
X0066316Y0152179D01*
X0071277Y0148285D01*
X0073133Y0146819D01*
X0074366Y0145836D01*
X0074252Y0145926D02*
X0047171Y0145926D01*
X0046710Y0146318D02*
X0073761Y0146318D01*
X0073269Y0146711D02*
X0046573Y0146711D01*
X0046500Y0147103D02*
X0072774Y0147103D01*
X0072277Y0147495D02*
X0046677Y0147495D01*
X0046928Y0147887D02*
X0071781Y0147887D01*
X0071284Y0148280D02*
X0047435Y0148280D01*
X0048044Y0148672D02*
X0070785Y0148672D01*
X0070285Y0149064D02*
X0048660Y0149064D01*
X0049228Y0149456D02*
X0069785Y0149456D01*
X0069286Y0149848D02*
X0048962Y0149848D01*
X0047735Y0145534D02*
X0074739Y0145534D01*
X0075223Y0145142D02*
X0048326Y0145142D01*
X0048921Y0144750D02*
X0075701Y0144750D01*
X0076155Y0144357D02*
X0049521Y0144357D01*
X0050126Y0143965D02*
X0061931Y0143965D01*
X0061304Y0143573D02*
X0050733Y0143573D01*
X0051345Y0143181D02*
X0060677Y0143181D01*
X0060050Y0142789D02*
X0051957Y0142789D01*
X0052569Y0142396D02*
X0059423Y0142396D01*
X0058796Y0142004D02*
X0053192Y0142004D01*
X0053814Y0141612D02*
X0058184Y0141612D01*
X0057584Y0141220D02*
X0054448Y0141220D01*
X0055114Y0140828D02*
X0056988Y0140828D01*
X0060464Y0139259D02*
X0073132Y0139259D01*
X0072739Y0139651D02*
X0060795Y0139651D01*
X0061263Y0140043D02*
X0072681Y0140043D01*
X0072990Y0140435D02*
X0061860Y0140435D01*
X0062480Y0140828D02*
X0073467Y0140828D01*
X0073967Y0141220D02*
X0063114Y0141220D01*
X0063758Y0141612D02*
X0074473Y0141612D01*
X0074979Y0142004D02*
X0064401Y0142004D01*
X0065045Y0142396D02*
X0075485Y0142396D01*
X0075977Y0142789D02*
X0065688Y0142789D01*
X0066321Y0143181D02*
X0076221Y0143181D01*
X0076379Y0143573D02*
X0066924Y0143573D01*
X0066835Y0143965D02*
X0076284Y0143965D01*
X0073647Y0138866D02*
X0060388Y0138866D01*
X0060396Y0138474D02*
X0074184Y0138474D01*
X0074723Y0138082D02*
X0060661Y0138082D01*
X0061126Y0137690D02*
X0075262Y0137690D01*
X0075790Y0137298D02*
X0061727Y0137298D01*
X0062342Y0136905D02*
X0076233Y0136905D01*
X0076250Y0136513D02*
X0062964Y0136513D01*
X0063598Y0136121D02*
X0076265Y0136121D01*
X0076265Y0135729D02*
X0064232Y0135729D01*
X0064866Y0135337D02*
X0076264Y0135337D01*
X0076264Y0134944D02*
X0065500Y0134944D01*
X0066134Y0134552D02*
X0076264Y0134552D01*
X0076264Y0134160D02*
X0066768Y0134160D01*
X0067402Y0133768D02*
X0076263Y0133768D01*
X0076263Y0133375D02*
X0068021Y0133375D01*
X0068639Y0132983D02*
X0076263Y0132983D01*
X0076263Y0132591D02*
X0069236Y0132591D01*
X0069474Y0132199D02*
X0076263Y0132199D01*
X0076262Y0131807D02*
X0069475Y0131807D01*
X0068945Y0131414D02*
X0076262Y0131414D01*
X0076262Y0131022D02*
X0068374Y0131022D01*
X0067779Y0130630D02*
X0076261Y0130630D01*
X0076258Y0130238D02*
X0067119Y0130238D01*
X0066045Y0130238D02*
X0045928Y0130238D01*
X0045351Y0129846D02*
X0076255Y0129846D01*
X0076252Y0129453D02*
X0045114Y0129453D01*
X0044976Y0129061D02*
X0076248Y0129061D01*
X0076240Y0128669D02*
X0044980Y0128669D01*
X0044983Y0128277D02*
X0076231Y0128277D01*
X0076207Y0127885D02*
X0044987Y0127885D01*
X0044991Y0127492D02*
X0076159Y0127492D01*
X0075748Y0127100D02*
X0044995Y0127100D01*
X0044998Y0126708D02*
X0075306Y0126708D01*
X0074848Y0126316D02*
X0045003Y0126316D01*
X0045007Y0125923D02*
X0074390Y0125923D01*
X0073921Y0125531D02*
X0045012Y0125531D01*
X0045016Y0125139D02*
X0073452Y0125139D01*
X0072983Y0124747D02*
X0045020Y0124747D01*
X0045025Y0124355D02*
X0072513Y0124355D01*
X0072039Y0123962D02*
X0044862Y0123962D01*
X0046521Y0130630D02*
X0065440Y0130630D01*
X0064817Y0131022D02*
X0047116Y0131022D01*
X0047718Y0131414D02*
X0064188Y0131414D01*
X0063560Y0131807D02*
X0048324Y0131807D01*
X0048929Y0132199D02*
X0062931Y0132199D01*
X0062302Y0132591D02*
X0049534Y0132591D01*
X0050139Y0132983D02*
X0061673Y0132983D01*
X0061044Y0133375D02*
X0050745Y0133375D01*
X0051350Y0133768D02*
X0060416Y0133768D01*
X0059783Y0134160D02*
X0051955Y0134160D01*
X0052560Y0134552D02*
X0059147Y0134552D01*
X0058512Y0134944D02*
X0053165Y0134944D01*
X0053771Y0135337D02*
X0057876Y0135337D01*
X0057221Y0135729D02*
X0054383Y0135729D01*
X0055096Y0136121D02*
X0056428Y0136121D01*
X0051286Y0138474D02*
X0044993Y0138474D01*
X0044926Y0138866D02*
X0051325Y0138866D01*
X0051236Y0139259D02*
X0044606Y0139259D01*
X0044169Y0139651D02*
X0051002Y0139651D01*
X0050475Y0140043D02*
X0043705Y0140043D01*
X0043228Y0140435D02*
X0049877Y0140435D01*
X0049267Y0140828D02*
X0042745Y0140828D01*
X0042261Y0141220D02*
X0048653Y0141220D01*
X0048039Y0141612D02*
X0041776Y0141612D01*
X0041291Y0142004D02*
X0047421Y0142004D01*
X0046796Y0142396D02*
X0040806Y0142396D01*
X0040321Y0142789D02*
X0046171Y0142789D01*
X0045546Y0143181D02*
X0039836Y0143181D01*
X0039352Y0143573D02*
X0044921Y0143573D01*
X0044297Y0143965D02*
X0038872Y0143965D01*
X0038391Y0144357D02*
X0043672Y0144357D01*
X0043047Y0144750D02*
X0037910Y0144750D01*
X0037433Y0145142D02*
X0042422Y0145142D01*
X0041797Y0145534D02*
X0036959Y0145534D01*
X0036486Y0145926D02*
X0041176Y0145926D01*
X0040556Y0146318D02*
X0036029Y0146318D01*
X0035743Y0146711D02*
X0039937Y0146711D01*
X0039527Y0147103D02*
X0035633Y0147103D01*
X0035621Y0147495D02*
X0039382Y0147495D01*
X0039922Y0147887D02*
X0035671Y0147887D01*
X0035964Y0148280D02*
X0040554Y0148280D01*
X0041211Y0148672D02*
X0036413Y0148672D01*
X0036889Y0149064D02*
X0041871Y0149064D01*
X0042531Y0149456D02*
X0037373Y0149456D01*
X0037858Y0149848D02*
X0043226Y0149848D01*
X0040848Y0152202D02*
X0066274Y0152202D01*
X0066787Y0151809D02*
X0040330Y0151809D01*
X0039828Y0151417D02*
X0067287Y0151417D01*
X0067786Y0151025D02*
X0039334Y0151025D01*
X0038841Y0150633D02*
X0068286Y0150633D01*
X0068786Y0150241D02*
X0038347Y0150241D01*
X0044687Y0138082D02*
X0051109Y0138082D01*
X0050815Y0137690D02*
X0044185Y0137690D01*
X0043683Y0137298D02*
X0050195Y0137298D01*
X0049568Y0136905D02*
X0043177Y0136905D01*
X0042671Y0136513D02*
X0048935Y0136513D01*
X0048300Y0136121D02*
X0042166Y0136121D01*
X0041660Y0135729D02*
X0047665Y0135729D01*
X0047030Y0135337D02*
X0041154Y0135337D01*
X0040648Y0134944D02*
X0046392Y0134944D01*
X0045752Y0134552D02*
X0040143Y0134552D01*
X0039637Y0134160D02*
X0045112Y0134160D01*
X0044473Y0133768D02*
X0039131Y0133768D01*
X0038626Y0133375D02*
X0043833Y0133375D01*
X0043193Y0132983D02*
X0038120Y0132983D01*
X0037614Y0132591D02*
X0042554Y0132591D01*
X0041914Y0132199D02*
X0037112Y0132199D01*
X0036611Y0131807D02*
X0041274Y0131807D01*
X0040635Y0131414D02*
X0036527Y0131414D01*
X0036388Y0131414D02*
X0036114Y0131414D01*
X0035671Y0131022D02*
X0036794Y0131022D01*
X0036929Y0131022D02*
X0039995Y0131022D01*
X0039355Y0130630D02*
X0037330Y0130630D01*
X0037200Y0130630D02*
X0035550Y0130630D01*
X0035471Y0130238D02*
X0037606Y0130238D01*
X0037732Y0130238D02*
X0038717Y0130238D01*
X0038187Y0129846D02*
X0038134Y0129846D01*
X0038013Y0129846D02*
X0035471Y0129846D01*
X0035470Y0129453D02*
X0038112Y0129453D01*
X0038107Y0129061D02*
X0035470Y0129061D01*
X0035469Y0128669D02*
X0038101Y0128669D01*
X0038095Y0128277D02*
X0035469Y0128277D01*
X0035468Y0127885D02*
X0038092Y0127885D01*
X0038089Y0127492D02*
X0035468Y0127492D01*
X0035467Y0127100D02*
X0038090Y0127100D01*
X0038092Y0126708D02*
X0035464Y0126708D01*
X0035462Y0126316D02*
X0038098Y0126316D01*
X0038104Y0125923D02*
X0035460Y0125923D01*
X0035457Y0125531D02*
X0038116Y0125531D01*
X0038129Y0125139D02*
X0035451Y0125139D01*
X0035446Y0124747D02*
X0038142Y0124747D01*
X0038155Y0124355D02*
X0035440Y0124355D01*
X0035432Y0123962D02*
X0038337Y0123962D01*
X0036568Y0121217D02*
X0068440Y0121217D01*
X0069192Y0121609D02*
X0035707Y0121609D01*
X0035503Y0122001D02*
X0069666Y0122001D01*
X0070141Y0122394D02*
X0035417Y0122394D01*
X0035400Y0122786D02*
X0070615Y0122786D01*
X0071090Y0123178D02*
X0035407Y0123178D01*
X0035419Y0123570D02*
X0071564Y0123570D01*
M02*
